<mxfile host="app.diagrams.net" agent="Mozilla/5.0 (Macintosh; Intel Mac OS X 10_15_7) AppleWebKit/537.36 (KHTML, like Gecko) Chrome/128.0.0.0 Safari/537.36" version="24.7.7">
  <diagram name="Page-1" id="fcZhdtvS9p5PEWPYI8Sy">
    <mxGraphModel dx="2917" dy="1925" grid="0" gridSize="10" guides="1" tooltips="1" connect="1" arrows="1" fold="1" page="1" pageScale="1" pageWidth="827" pageHeight="1169" math="0" shadow="0">
      <root>
        <mxCell id="0" />
        <mxCell id="1" parent="0" />
        <mxCell id="KmAEbtHQRBGaexXC9Sj9-1" value="" style="rounded=0;whiteSpace=wrap;html=1;fillColor=none;dashed=1;strokeWidth=6;" parent="1" vertex="1">
          <mxGeometry x="-1180" y="490" width="1670" height="1780" as="geometry" />
        </mxCell>
        <mxCell id="KmAEbtHQRBGaexXC9Sj9-2" value="" style="rounded=0;whiteSpace=wrap;html=1;fillColor=none;dashed=1;strokeWidth=6;" parent="1" vertex="1">
          <mxGeometry x="-1000" y="-600" width="1490" height="1080" as="geometry" />
        </mxCell>
        <mxCell id="7268VmPEQmdFCBt6fVRC-45" value="" style="html=1;jettySize=18;whiteSpace=wrap;overflow=block;blockSpacing=1;fontSize=13;strokeColor=#3a414a;strokeOpacity=100;strokeWidth=0.8;rounded=1;arcSize=12;edgeStyle=orthogonalEdgeStyle;startArrow=none;endArrow=block;endFill=1;exitX=0.5;exitY=1.017;exitPerimeter=0;lucidId=GWr79bhpcn.O;" parent="1" source="7268VmPEQmdFCBt6fVRC-58" target="7268VmPEQmdFCBt6fVRC-217" edge="1">
          <mxGeometry width="100" height="100" relative="1" as="geometry">
            <Array as="points" />
            <mxPoint x="-870" y="-60" as="targetPoint" />
          </mxGeometry>
        </mxCell>
        <mxCell id="7268VmPEQmdFCBt6fVRC-46" value="" style="html=1;jettySize=18;whiteSpace=wrap;overflow=block;blockSpacing=1;fontSize=13;strokeColor=#3a414a;strokeOpacity=100;strokeWidth=0.8;rounded=1;arcSize=12;edgeStyle=orthogonalEdgeStyle;startArrow=none;endArrow=block;endFill=1;exitX=0.5;exitY=1.017;exitPerimeter=0;entryX=0.483;entryY=0.091;entryPerimeter=0;lucidId=5Yr7krDCe1~g;entryDx=0;entryDy=0;" parent="1" source="7268VmPEQmdFCBt6fVRC-58" target="7268VmPEQmdFCBt6fVRC-223" edge="1">
          <mxGeometry width="100" height="100" relative="1" as="geometry">
            <Array as="points" />
            <mxPoint x="-630" y="-59" as="targetPoint" />
          </mxGeometry>
        </mxCell>
        <mxCell id="7268VmPEQmdFCBt6fVRC-47" value="" style="html=1;jettySize=18;whiteSpace=wrap;overflow=block;blockSpacing=1;fontSize=13;strokeColor=#3a414a;strokeOpacity=100;strokeWidth=0.8;rounded=1;arcSize=12;edgeStyle=orthogonalEdgeStyle;startArrow=none;endArrow=block;endFill=1;exitX=0.5;exitY=1.017;exitPerimeter=0;lucidId=9Yr7BtLrKn6U;" parent="1" source="7268VmPEQmdFCBt6fVRC-58" target="7268VmPEQmdFCBt6fVRC-225" edge="1">
          <mxGeometry width="100" height="100" relative="1" as="geometry">
            <Array as="points" />
            <mxPoint x="-419.99999999999955" y="-60" as="targetPoint" />
          </mxGeometry>
        </mxCell>
        <mxCell id="7268VmPEQmdFCBt6fVRC-48" value="" style="html=1;jettySize=18;whiteSpace=wrap;overflow=block;blockSpacing=1;fontSize=13;strokeColor=#3a414a;strokeOpacity=100;strokeWidth=0.8;rounded=1;arcSize=12;edgeStyle=orthogonalEdgeStyle;startArrow=none;endArrow=block;endFill=1;exitX=0.5;exitY=1.017;exitPerimeter=0;lucidId=.Yr72rbnCcZs;" parent="1" source="7268VmPEQmdFCBt6fVRC-58" target="7268VmPEQmdFCBt6fVRC-224" edge="1">
          <mxGeometry width="100" height="100" relative="1" as="geometry">
            <Array as="points" />
          </mxGeometry>
        </mxCell>
        <mxCell id="7268VmPEQmdFCBt6fVRC-49" value="" style="html=1;jettySize=18;whiteSpace=wrap;overflow=block;blockSpacing=1;fontSize=13;strokeColor=#3a414a;strokeOpacity=100;strokeWidth=0.8;rounded=1;arcSize=12;edgeStyle=orthogonalEdgeStyle;startArrow=none;endArrow=block;endFill=1;exitX=0.5;exitY=1.017;exitPerimeter=0;entryX=0.5;entryY=0;entryPerimeter=0;lucidId=xZr7r6feh.bM;entryDx=0;entryDy=0;" parent="1" source="7268VmPEQmdFCBt6fVRC-59" target="7268VmPEQmdFCBt6fVRC-218" edge="1">
          <mxGeometry width="100" height="100" relative="1" as="geometry">
            <Array as="points" />
            <mxPoint x="-810" y="330" as="targetPoint" />
          </mxGeometry>
        </mxCell>
        <mxCell id="7268VmPEQmdFCBt6fVRC-50" value="" style="html=1;jettySize=18;whiteSpace=wrap;overflow=block;blockSpacing=1;fontSize=13;strokeColor=#3a414a;strokeOpacity=100;strokeWidth=0.8;rounded=1;arcSize=12;edgeStyle=orthogonalEdgeStyle;startArrow=none;endArrow=block;endFill=1;exitX=0.5;exitY=1.017;exitPerimeter=0;entryX=0.48;entryY=0;entryPerimeter=0;lucidId=v0r7iEhE~4Hi;entryDx=0;entryDy=0;" parent="1" source="7268VmPEQmdFCBt6fVRC-59" target="7268VmPEQmdFCBt6fVRC-219" edge="1">
          <mxGeometry width="100" height="100" relative="1" as="geometry">
            <Array as="points" />
            <mxPoint x="-615.0000000000005" y="330" as="targetPoint" />
          </mxGeometry>
        </mxCell>
        <mxCell id="7268VmPEQmdFCBt6fVRC-51" value="" style="html=1;jettySize=18;whiteSpace=wrap;overflow=block;blockSpacing=1;fontSize=13;strokeColor=#3a414a;strokeOpacity=100;strokeWidth=0.8;rounded=1;arcSize=12;edgeStyle=orthogonalEdgeStyle;startArrow=none;endArrow=block;endFill=1;exitX=0.5;exitY=1.017;exitPerimeter=0;entryX=0.5;entryY=0;entryPerimeter=0;lucidId=y0r72r68KfXO;entryDx=0;entryDy=0;" parent="1" source="7268VmPEQmdFCBt6fVRC-59" target="7268VmPEQmdFCBt6fVRC-220" edge="1">
          <mxGeometry width="100" height="100" relative="1" as="geometry">
            <Array as="points" />
            <mxPoint x="-420" y="330" as="targetPoint" />
          </mxGeometry>
        </mxCell>
        <mxCell id="7268VmPEQmdFCBt6fVRC-52" value="" style="html=1;jettySize=18;whiteSpace=wrap;overflow=block;blockSpacing=1;fontSize=13;strokeColor=#3a414a;strokeOpacity=100;strokeWidth=0.8;rounded=1;arcSize=12;edgeStyle=orthogonalEdgeStyle;startArrow=none;endArrow=block;endFill=1;exitX=0.5;exitY=1.017;exitPerimeter=0;entryX=0.5;entryY=0;entryPerimeter=0;lucidId=C0r7mXWmIQKI;entryDx=0;entryDy=0;" parent="1" source="7268VmPEQmdFCBt6fVRC-59" target="7268VmPEQmdFCBt6fVRC-222" edge="1">
          <mxGeometry width="100" height="100" relative="1" as="geometry">
            <Array as="points" />
            <mxPoint x="-210" y="330" as="targetPoint" />
          </mxGeometry>
        </mxCell>
        <mxCell id="7268VmPEQmdFCBt6fVRC-53" value="&lt;div style=&quot;display: flex; justify-content: center; text-align: center; align-items: baseline; font-size: 0; line-height: 1.25;margin-top: -2px;&quot;&gt;&lt;span&gt;&lt;span style=&quot;font-size:16.7px;&quot;&gt;Durée du travail estimée ?&#xa;&lt;/span&gt;&lt;span style=&quot;font-size:13.3px;font-style: italic;&quot;&gt;Calculé en jour par personne&lt;/span&gt;&lt;/span&gt;&lt;/div&gt;" style="html=1;overflow=block;blockSpacing=1;whiteSpace=wrap;fontSize=13;spacing=3.8;strokeColor=#666666;rounded=1;absoluteArcSize=1;arcSize=9;fillColor=#f5f5f5;strokeWidth=NaN;lucidId=x1r7ZiWbzoMB;fontColor=#333333;" parent="1" vertex="1">
          <mxGeometry x="-577" y="526" width="135" height="88" as="geometry" />
        </mxCell>
        <mxCell id="7268VmPEQmdFCBt6fVRC-54" value="" style="html=1;jettySize=18;whiteSpace=wrap;overflow=block;blockSpacing=1;fontSize=13;strokeColor=#3a414a;strokeOpacity=100;strokeWidth=0.8;rounded=1;arcSize=12;edgeStyle=orthogonalEdgeStyle;startArrow=none;endArrow=block;endFill=1;exitX=0.484;exitY=0.933;exitPerimeter=0;entryX=0.25;entryY=0;lucidId=e2r7PKSp98cc;exitDx=0;exitDy=0;entryDx=0;entryDy=0;dashed=1;" parent="1" source="7268VmPEQmdFCBt6fVRC-217" target="KmAEbtHQRBGaexXC9Sj9-48" edge="1">
          <mxGeometry width="100" height="100" relative="1" as="geometry">
            <Array as="points">
              <mxPoint x="-864" y="59" />
              <mxPoint x="-722" y="59" />
            </Array>
            <mxPoint x="-870" as="sourcePoint" />
          </mxGeometry>
        </mxCell>
        <mxCell id="7268VmPEQmdFCBt6fVRC-55" value="" style="html=1;jettySize=18;whiteSpace=wrap;overflow=block;blockSpacing=1;fontSize=13;strokeColor=#3a414a;strokeOpacity=100;strokeWidth=0.8;rounded=1;arcSize=12;edgeStyle=orthogonalEdgeStyle;startArrow=none;endArrow=block;endFill=1;exitX=0.514;exitY=0.903;exitPerimeter=0;entryX=0.5;entryY=0;lucidId=j2r7BA~THjf5;exitDx=0;exitDy=0;entryDx=0;entryDy=0;" parent="1" source="7268VmPEQmdFCBt6fVRC-223" target="7268VmPEQmdFCBt6fVRC-59" edge="1">
          <mxGeometry width="100" height="100" relative="1" as="geometry">
            <Array as="points">
              <mxPoint x="-633" y="57" />
              <mxPoint x="-525" y="57" />
            </Array>
            <mxPoint x="-630" y="1" as="sourcePoint" />
          </mxGeometry>
        </mxCell>
        <mxCell id="7268VmPEQmdFCBt6fVRC-56" value="" style="html=1;jettySize=18;whiteSpace=wrap;overflow=block;blockSpacing=1;fontSize=13;strokeColor=#3a414a;strokeOpacity=100;strokeWidth=0.8;rounded=1;arcSize=12;edgeStyle=orthogonalEdgeStyle;startArrow=none;endArrow=block;endFill=1;exitX=0.516;exitY=0.875;exitPerimeter=0;lucidId=q2r7TWV4VOhJ;exitDx=0;exitDy=0;" parent="1" source="7268VmPEQmdFCBt6fVRC-225" target="7268VmPEQmdFCBt6fVRC-59" edge="1">
          <mxGeometry width="100" height="100" relative="1" as="geometry">
            <Array as="points">
              <mxPoint x="-411" y="57" />
              <mxPoint x="-525" y="57" />
            </Array>
            <mxPoint x="-419.99999999999955" as="sourcePoint" />
          </mxGeometry>
        </mxCell>
        <mxCell id="7268VmPEQmdFCBt6fVRC-57" value="" style="html=1;jettySize=18;whiteSpace=wrap;overflow=block;blockSpacing=1;fontSize=13;strokeColor=#3a414a;strokeOpacity=100;strokeWidth=0.8;rounded=1;arcSize=12;edgeStyle=orthogonalEdgeStyle;startArrow=none;endArrow=block;endFill=1;exitX=0.494;exitY=0.938;exitPerimeter=0;entryX=0.5;entryY=0;lucidId=u2r7fU8hXIdy;exitDx=0;exitDy=0;entryDx=0;entryDy=0;" parent="1" source="7268VmPEQmdFCBt6fVRC-224" target="7268VmPEQmdFCBt6fVRC-59" edge="1">
          <mxGeometry width="100" height="100" relative="1" as="geometry">
            <Array as="points">
              <mxPoint x="-181" y="57" />
              <mxPoint x="-525" y="57" />
            </Array>
          </mxGeometry>
        </mxCell>
        <mxCell id="7268VmPEQmdFCBt6fVRC-58" value="Type de tâche ?" style="html=1;overflow=block;blockSpacing=1;whiteSpace=wrap;fontSize=16.7;spacing=3.8;strokeColor=#666666;rounded=1;absoluteArcSize=1;arcSize=9;fillColor=#f5f5f5;strokeWidth=NaN;lucidId=j4r7KApGNP3D;fontColor=#333333;" parent="1" vertex="1">
          <mxGeometry x="-600" y="-315" width="143" height="45" as="geometry" />
        </mxCell>
        <mxCell id="7268VmPEQmdFCBt6fVRC-59" value="Quelle priorité ?" style="html=1;overflow=block;blockSpacing=1;whiteSpace=wrap;fontSize=16.7;spacing=3.8;strokeColor=#666666;rounded=1;absoluteArcSize=1;arcSize=9;fillColor=#f5f5f5;strokeWidth=NaN;lucidId=y4r7EGyVs_DY;fontColor=#333333;" parent="1" vertex="1">
          <mxGeometry x="-600" y="180" width="150" height="45" as="geometry" />
        </mxCell>
        <mxCell id="7268VmPEQmdFCBt6fVRC-60" value="" style="html=1;jettySize=18;whiteSpace=wrap;overflow=block;blockSpacing=1;fontSize=13;strokeColor=#3a414a;strokeOpacity=100;strokeWidth=0.8;rounded=1;arcSize=12;edgeStyle=orthogonalEdgeStyle;startArrow=none;endArrow=block;endFill=1;exitX=0.5;exitY=1;exitPerimeter=0;entryX=0.5;entryY=-0.009;entryPerimeter=0;lucidId=i6r7.LIMNPZT;exitDx=0;exitDy=0;" parent="1" source="7268VmPEQmdFCBt6fVRC-218" target="7268VmPEQmdFCBt6fVRC-53" edge="1">
          <mxGeometry width="100" height="100" relative="1" as="geometry">
            <Array as="points" />
            <mxPoint x="-810" y="390" as="sourcePoint" />
          </mxGeometry>
        </mxCell>
        <mxCell id="7268VmPEQmdFCBt6fVRC-61" value="" style="html=1;jettySize=18;whiteSpace=wrap;overflow=block;blockSpacing=1;fontSize=13;strokeColor=#3a414a;strokeOpacity=100;strokeWidth=0.8;rounded=1;arcSize=12;edgeStyle=orthogonalEdgeStyle;startArrow=none;endArrow=block;endFill=1;exitX=0.5;exitY=1;exitPerimeter=0;entryX=0.5;entryY=-0.009;entryPerimeter=0;lucidId=p6r7za8y9WH8;exitDx=0;exitDy=0;" parent="1" source="7268VmPEQmdFCBt6fVRC-219" target="7268VmPEQmdFCBt6fVRC-53" edge="1">
          <mxGeometry width="100" height="100" relative="1" as="geometry">
            <Array as="points" />
            <mxPoint x="-615.0000000000005" y="390" as="sourcePoint" />
          </mxGeometry>
        </mxCell>
        <mxCell id="7268VmPEQmdFCBt6fVRC-62" value="" style="html=1;jettySize=18;whiteSpace=wrap;overflow=block;blockSpacing=1;fontSize=13;strokeColor=#3a414a;strokeOpacity=100;strokeWidth=0.8;rounded=1;arcSize=12;edgeStyle=orthogonalEdgeStyle;startArrow=none;endArrow=block;endFill=1;exitX=0.5;exitY=1;exitPerimeter=0;entryX=0.5;entryY=-0.009;entryPerimeter=0;lucidId=B6r7BVNr0MH5;exitDx=0;exitDy=0;" parent="1" source="7268VmPEQmdFCBt6fVRC-220" target="7268VmPEQmdFCBt6fVRC-53" edge="1">
          <mxGeometry width="100" height="100" relative="1" as="geometry">
            <Array as="points" />
            <mxPoint x="-420" y="390" as="sourcePoint" />
          </mxGeometry>
        </mxCell>
        <mxCell id="7268VmPEQmdFCBt6fVRC-63" value="" style="html=1;jettySize=18;whiteSpace=wrap;overflow=block;blockSpacing=1;fontSize=13;strokeColor=#3a414a;strokeOpacity=100;strokeWidth=0.8;rounded=1;arcSize=12;edgeStyle=orthogonalEdgeStyle;startArrow=none;endArrow=block;endFill=1;entryX=0.5;entryY=-0.009;entryPerimeter=0;lucidId=F6r7zuVkJyv7;exitX=0.5;exitY=1;exitDx=0;exitDy=0;exitPerimeter=0;" parent="1" source="7268VmPEQmdFCBt6fVRC-222" target="7268VmPEQmdFCBt6fVRC-85" edge="1">
          <mxGeometry width="100" height="100" relative="1" as="geometry">
            <Array as="points" />
            <mxPoint x="-209" y="390" as="sourcePoint" />
          </mxGeometry>
        </mxCell>
        <mxCell id="7268VmPEQmdFCBt6fVRC-64" value="" style="html=1;jettySize=18;whiteSpace=wrap;overflow=block;blockSpacing=1;fontSize=13;strokeColor=#3a414a;strokeOpacity=100;strokeWidth=0.8;rounded=1;arcSize=12;edgeStyle=orthogonalEdgeStyle;startArrow=none;endArrow=block;endFill=1;exitX=0.5;exitY=1.009;exitPerimeter=0;entryX=0.5;entryY=0;entryPerimeter=0;lucidId=V6r7g9qa6I1i;" parent="1" source="7268VmPEQmdFCBt6fVRC-53" target="7268VmPEQmdFCBt6fVRC-65" edge="1">
          <mxGeometry width="100" height="100" relative="1" as="geometry">
            <Array as="points" />
          </mxGeometry>
        </mxCell>
        <mxCell id="7268VmPEQmdFCBt6fVRC-65" value="0.25 à 6 j/h" style="html=1;overflow=block;blockSpacing=1;whiteSpace=wrap;fontSize=16.7;spacing=3.8;strokeOpacity=0;fillOpacity=0;rounded=1;absoluteArcSize=1;arcSize=9;fillColor=#ffffff;strokeWidth=NaN;lucidId=X6r7Kn.4M4vJ;" parent="1" vertex="1">
          <mxGeometry x="-555" y="675" width="90" height="45" as="geometry" />
        </mxCell>
        <mxCell id="7268VmPEQmdFCBt6fVRC-66" value="" style="html=1;jettySize=18;whiteSpace=wrap;overflow=block;blockSpacing=1;fontSize=13;strokeColor=#3a414a;strokeOpacity=100;strokeWidth=0.8;rounded=1;arcSize=12;edgeStyle=orthogonalEdgeStyle;startArrow=none;endArrow=block;endFill=1;exitX=1.006;exitY=0.5;exitPerimeter=0;entryX=0;entryY=0.5;entryPerimeter=0;lucidId=y7r762tDR9xW;" parent="1" source="7268VmPEQmdFCBt6fVRC-53" target="7268VmPEQmdFCBt6fVRC-67" edge="1">
          <mxGeometry width="100" height="100" relative="1" as="geometry">
            <Array as="points" />
          </mxGeometry>
        </mxCell>
        <mxCell id="7268VmPEQmdFCBt6fVRC-67" value="&amp;gt; 6 j/h" style="html=1;overflow=block;blockSpacing=1;whiteSpace=wrap;fontSize=16.7;spacing=3.8;strokeOpacity=0;fillOpacity=0;rounded=1;absoluteArcSize=1;arcSize=9;fillColor=#ffffff;strokeWidth=NaN;lucidId=z7r7cQ-Ino3h;" parent="1" vertex="1">
          <mxGeometry x="-75" y="551" width="75" height="38" as="geometry" />
        </mxCell>
        <mxCell id="7268VmPEQmdFCBt6fVRC-68" value="" style="html=1;jettySize=18;whiteSpace=wrap;overflow=block;blockSpacing=1;fontSize=13;strokeColor=#3a414a;strokeOpacity=100;strokeWidth=0.8;rounded=1;arcSize=12;edgeStyle=orthogonalEdgeStyle;startArrow=none;endArrow=block;endFill=1;exitX=1;exitY=0.5;exitPerimeter=0;entryX=0.5;entryY=1.006;entryPerimeter=0;lucidId=.7r77-tQ36O4;" parent="1" source="7268VmPEQmdFCBt6fVRC-67" target="7268VmPEQmdFCBt6fVRC-69" edge="1">
          <mxGeometry width="100" height="100" relative="1" as="geometry">
            <Array as="points">
              <mxPoint x="15" y="570" />
            </Array>
          </mxGeometry>
        </mxCell>
        <mxCell id="7268VmPEQmdFCBt6fVRC-69" value="Séquençable en plusieurs tâches ?" style="html=1;overflow=block;blockSpacing=1;whiteSpace=wrap;fontSize=16.7;spacing=3.8;strokeColor=#000000;rounded=1;absoluteArcSize=1;arcSize=9;fillColor=none;strokeWidth=NaN;lucidId=~7r7wULAlt~f;" parent="1" vertex="1">
          <mxGeometry x="-45" y="-516" width="120" height="120" as="geometry" />
        </mxCell>
        <mxCell id="7268VmPEQmdFCBt6fVRC-70" value="" style="html=1;jettySize=18;whiteSpace=wrap;overflow=block;blockSpacing=1;fontSize=13;strokeColor=#3a414a;strokeOpacity=100;strokeWidth=0.8;rounded=1;arcSize=12;edgeStyle=orthogonalEdgeStyle;startArrow=none;endArrow=block;endFill=1;exitX=-0.006;exitY=0.5;exitPerimeter=0;entryX=1;entryY=0.5;entryPerimeter=0;lucidId=B_r7NjkyLdqk;" parent="1" source="7268VmPEQmdFCBt6fVRC-69" target="7268VmPEQmdFCBt6fVRC-71" edge="1">
          <mxGeometry width="100" height="100" relative="1" as="geometry">
            <Array as="points" />
          </mxGeometry>
        </mxCell>
        <mxCell id="7268VmPEQmdFCBt6fVRC-71" value="Oui" style="html=1;overflow=block;blockSpacing=1;whiteSpace=wrap;fontSize=16.7;spacing=3.8;strokeOpacity=0;fillOpacity=0;rounded=1;absoluteArcSize=1;arcSize=9;fillColor=#ffffff;strokeWidth=NaN;lucidId=C_r7Z1mVk2do;" parent="1" vertex="1">
          <mxGeometry x="-255" y="-479" width="75" height="45" as="geometry" />
        </mxCell>
        <mxCell id="7268VmPEQmdFCBt6fVRC-72" value="" style="html=1;jettySize=18;whiteSpace=wrap;overflow=block;blockSpacing=1;fontSize=13;strokeColor=#3a414a;strokeOpacity=100;strokeWidth=0.8;rounded=1;arcSize=12;edgeStyle=orthogonalEdgeStyle;startArrow=none;endArrow=block;endFill=1;exitX=0;exitY=0.5;exitPerimeter=0;entryX=1.005;entryY=0.5;entryPerimeter=0;lucidId=K_r78cQTjE8Y;" parent="1" source="7268VmPEQmdFCBt6fVRC-71" target="7268VmPEQmdFCBt6fVRC-91" edge="1">
          <mxGeometry width="100" height="100" relative="1" as="geometry">
            <Array as="points" />
          </mxGeometry>
        </mxCell>
        <mxCell id="7268VmPEQmdFCBt6fVRC-73" value="" style="html=1;jettySize=18;whiteSpace=wrap;overflow=block;blockSpacing=1;fontSize=13;strokeColor=#3a414a;strokeOpacity=100;strokeWidth=0.8;rounded=1;arcSize=12;edgeStyle=orthogonalEdgeStyle;startArrow=none;endArrow=block;endFill=1;exitX=1.006;exitY=0.5;exitPerimeter=0;entryX=0;entryY=0.5;entryPerimeter=0;lucidId=S_r7kf0IIELZ;" parent="1" source="7268VmPEQmdFCBt6fVRC-69" target="7268VmPEQmdFCBt6fVRC-74" edge="1">
          <mxGeometry width="100" height="100" relative="1" as="geometry">
            <Array as="points" />
          </mxGeometry>
        </mxCell>
        <mxCell id="7268VmPEQmdFCBt6fVRC-74" value="Non" style="html=1;overflow=block;blockSpacing=1;whiteSpace=wrap;fontSize=16.7;spacing=3.8;strokeOpacity=0;fillOpacity=0;rounded=1;absoluteArcSize=1;arcSize=9;fillColor=#ffffff;strokeWidth=NaN;lucidId=T_r7yN.Xvmcp;" parent="1" vertex="1">
          <mxGeometry x="120" y="-479" width="75" height="45" as="geometry" />
        </mxCell>
        <mxCell id="7268VmPEQmdFCBt6fVRC-75" value="" style="html=1;jettySize=18;whiteSpace=wrap;overflow=block;blockSpacing=1;fontSize=13;strokeColor=#3a414a;strokeOpacity=100;strokeWidth=0.8;rounded=1;arcSize=12;edgeStyle=orthogonalEdgeStyle;startArrow=none;endArrow=block;endFill=1;exitX=1;exitY=0.5;exitPerimeter=0;entryX=-0.006;entryY=0.5;entryPerimeter=0;lucidId=-_r7Xxgt.JMU;" parent="1" source="7268VmPEQmdFCBt6fVRC-74" target="7268VmPEQmdFCBt6fVRC-76" edge="1">
          <mxGeometry width="100" height="100" relative="1" as="geometry">
            <Array as="points" />
          </mxGeometry>
        </mxCell>
        <mxCell id="7268VmPEQmdFCBt6fVRC-76" value="Création d&#39;un projet" style="html=1;overflow=block;blockSpacing=1;whiteSpace=wrap;fontSize=16.7;spacing=3.8;strokeColor=#000000;rounded=1;absoluteArcSize=1;arcSize=9;fillColor=none;strokeWidth=NaN;lucidId=__r7heEoI50M;" parent="1" vertex="1">
          <mxGeometry x="240" y="-516" width="120" height="120" as="geometry" />
        </mxCell>
        <mxCell id="7268VmPEQmdFCBt6fVRC-80" value="" style="html=1;overflow=block;blockSpacing=1;whiteSpace=wrap;fontSize=16.7;align=center;spacing=3.8;strokeOpacity=0;fillOpacity=0;rounded=1;absoluteArcSize=1;arcSize=9;fillColor=#ffffff;strokeWidth=NaN;lucidId=cas78cJPZkww;" parent="1" vertex="1">
          <mxGeometry x="-270" y="-60" width="180" height="60" as="geometry" />
        </mxCell>
        <mxCell id="7268VmPEQmdFCBt6fVRC-85" value="&lt;div style=&quot;display: flex; justify-content: center; text-align: center; align-items: baseline; font-size: 0; line-height: 1.25;margin-top: -2px;&quot;&gt;&lt;span&gt;&lt;span style=&quot;font-size:16.7px;&quot;&gt;Durée du travail estimée ?&#xa;&lt;/span&gt;&lt;span style=&quot;font-size:13.3px;font-style: italic;&quot;&gt;Calculé en jour par personne&lt;/span&gt;&lt;/span&gt;&lt;/div&gt;" style="html=1;overflow=block;blockSpacing=1;whiteSpace=wrap;fontSize=13;spacing=3.8;strokeColor=#666666;rounded=1;absoluteArcSize=1;arcSize=9;fillColor=#f5f5f5;strokeWidth=NaN;lucidId=wbs7ypl_VjJa;fontColor=#333333;" parent="1" vertex="1">
          <mxGeometry x="-277" y="630" width="135" height="88" as="geometry" />
        </mxCell>
        <mxCell id="7268VmPEQmdFCBt6fVRC-86" value="" style="html=1;jettySize=18;whiteSpace=wrap;overflow=block;blockSpacing=1;fontSize=13;strokeColor=#3a414a;strokeOpacity=100;strokeWidth=0.8;rounded=1;arcSize=12;edgeStyle=orthogonalEdgeStyle;startArrow=none;endArrow=block;endFill=1;exitX=1.006;exitY=0.5;exitPerimeter=0;entryX=0.5;entryY=1;entryPerimeter=0;lucidId=7bs7uB7d7-~h;" parent="1" source="7268VmPEQmdFCBt6fVRC-85" target="7268VmPEQmdFCBt6fVRC-67" edge="1">
          <mxGeometry width="100" height="100" relative="1" as="geometry">
            <Array as="points" />
          </mxGeometry>
        </mxCell>
        <mxCell id="7268VmPEQmdFCBt6fVRC-87" value="0.25 à 6 j/h" style="html=1;overflow=block;blockSpacing=1;whiteSpace=wrap;fontSize=16.7;spacing=3.8;strokeOpacity=0;fillOpacity=0;rounded=1;absoluteArcSize=1;arcSize=9;fillColor=#ffffff;strokeWidth=NaN;lucidId=ycs7k-iV7Tm~;" parent="1" vertex="1">
          <mxGeometry x="-255" y="765" width="90" height="45" as="geometry" />
        </mxCell>
        <mxCell id="7268VmPEQmdFCBt6fVRC-88" value="" style="html=1;jettySize=18;whiteSpace=wrap;overflow=block;blockSpacing=1;fontSize=13;strokeColor=#3a414a;strokeOpacity=100;strokeWidth=0.8;rounded=1;arcSize=12;edgeStyle=orthogonalEdgeStyle;startArrow=none;endArrow=block;endFill=1;exitX=0.5;exitY=1.009;exitPerimeter=0;entryX=0.5;entryY=0;entryPerimeter=0;lucidId=Kcs7-iPhEJoN;" parent="1" source="7268VmPEQmdFCBt6fVRC-85" target="7268VmPEQmdFCBt6fVRC-87" edge="1">
          <mxGeometry width="100" height="100" relative="1" as="geometry">
            <Array as="points" />
          </mxGeometry>
        </mxCell>
        <mxCell id="7268VmPEQmdFCBt6fVRC-89" value="" style="html=1;jettySize=18;whiteSpace=wrap;overflow=block;blockSpacing=1;fontSize=13;strokeColor=#3a414a;strokeOpacity=100;strokeWidth=0.8;rounded=1;arcSize=12;edgeStyle=orthogonalEdgeStyle;startArrow=none;endArrow=block;endFill=1;exitX=0.5;exitY=1;exitPerimeter=0;lucidId=7cs7XB3quXUA;" parent="1" source="7268VmPEQmdFCBt6fVRC-87" target="7268VmPEQmdFCBt6fVRC-212" edge="1">
          <mxGeometry width="100" height="100" relative="1" as="geometry">
            <Array as="points" />
            <mxPoint x="-210" y="915" as="targetPoint" />
          </mxGeometry>
        </mxCell>
        <mxCell id="7268VmPEQmdFCBt6fVRC-91" value="Quelle tâche ?" style="html=1;overflow=block;blockSpacing=1;whiteSpace=wrap;fontSize=16.7;spacing=3.8;rounded=1;absoluteArcSize=1;arcSize=9;strokeWidth=NaN;lucidId=9es7En538.l.;fillColor=#f5f5f5;fontColor=#333333;strokeColor=#666666;" parent="1" vertex="1">
          <mxGeometry x="-600" y="-480" width="143" height="48" as="geometry" />
        </mxCell>
        <mxCell id="7268VmPEQmdFCBt6fVRC-92" value="" style="html=1;jettySize=18;whiteSpace=wrap;overflow=block;blockSpacing=1;fontSize=13;strokeColor=#3a414a;strokeOpacity=100;strokeWidth=0.8;rounded=1;arcSize=12;edgeStyle=orthogonalEdgeStyle;startArrow=none;endArrow=block;endFill=1;exitX=0.5;exitY=1.016;exitPerimeter=0;entryX=0.5;entryY=-0.017;entryPerimeter=0;lucidId=yfs7n4fkxC1-;" parent="1" source="7268VmPEQmdFCBt6fVRC-91" target="7268VmPEQmdFCBt6fVRC-58" edge="1">
          <mxGeometry width="100" height="100" relative="1" as="geometry">
            <Array as="points" />
          </mxGeometry>
        </mxCell>
        <mxCell id="7268VmPEQmdFCBt6fVRC-93" value="" style="html=1;jettySize=18;whiteSpace=wrap;overflow=block;blockSpacing=1;fontSize=13;strokeColor=#3a414a;strokeOpacity=100;strokeWidth=0.8;rounded=1;arcSize=12;edgeStyle=orthogonalEdgeStyle;startArrow=none;endArrow=block;endFill=1;exitX=0.5;exitY=1;exitPerimeter=0;entryX=0.5;entryY=-0.01;entryPerimeter=0;lucidId=Ogs7yv3sAOYD;" parent="1" source="7268VmPEQmdFCBt6fVRC-65" target="7268VmPEQmdFCBt6fVRC-94" edge="1">
          <mxGeometry width="100" height="100" relative="1" as="geometry">
            <Array as="points" />
          </mxGeometry>
        </mxCell>
        <mxCell id="7268VmPEQmdFCBt6fVRC-104" value="z" style="edgeStyle=orthogonalEdgeStyle;rounded=0;orthogonalLoop=1;jettySize=auto;html=1;exitX=0.5;exitY=1;exitDx=0;exitDy=0;entryX=0;entryY=0.5;entryDx=0;entryDy=0;" parent="1" source="7268VmPEQmdFCBt6fVRC-94" target="7268VmPEQmdFCBt6fVRC-105" edge="1">
          <mxGeometry relative="1" as="geometry">
            <mxPoint x="-980" y="1140" as="targetPoint" />
            <Array as="points">
              <mxPoint x="-510" y="1030" />
              <mxPoint x="-1000" y="1030" />
              <mxPoint x="-1000" y="1135" />
            </Array>
          </mxGeometry>
        </mxCell>
        <mxCell id="7268VmPEQmdFCBt6fVRC-130" style="edgeStyle=orthogonalEdgeStyle;rounded=0;orthogonalLoop=1;jettySize=auto;html=1;exitX=0.5;exitY=1;exitDx=0;exitDy=0;entryX=0;entryY=0.5;entryDx=0;entryDy=0;" parent="1" source="7268VmPEQmdFCBt6fVRC-94" target="7268VmPEQmdFCBt6fVRC-108" edge="1">
          <mxGeometry relative="1" as="geometry">
            <Array as="points">
              <mxPoint x="-510" y="990" />
              <mxPoint x="-1080" y="990" />
              <mxPoint x="-1080" y="1320" />
            </Array>
          </mxGeometry>
        </mxCell>
        <mxCell id="7268VmPEQmdFCBt6fVRC-228" style="edgeStyle=orthogonalEdgeStyle;rounded=0;orthogonalLoop=1;jettySize=auto;html=1;exitX=0.5;exitY=1;exitDx=0;exitDy=0;entryX=0;entryY=0.5;entryDx=0;entryDy=0;" parent="1" source="7268VmPEQmdFCBt6fVRC-94" target="7268VmPEQmdFCBt6fVRC-98" edge="1">
          <mxGeometry relative="1" as="geometry">
            <mxPoint x="-680" y="1140" as="targetPoint" />
            <Array as="points">
              <mxPoint x="-510" y="1070" />
              <mxPoint x="-700" y="1070" />
              <mxPoint x="-700" y="1135" />
            </Array>
          </mxGeometry>
        </mxCell>
        <mxCell id="7268VmPEQmdFCBt6fVRC-230" style="edgeStyle=orthogonalEdgeStyle;rounded=0;orthogonalLoop=1;jettySize=auto;html=1;exitX=0.5;exitY=1;exitDx=0;exitDy=0;entryX=0;entryY=0.5;entryDx=0;entryDy=0;" parent="1" source="7268VmPEQmdFCBt6fVRC-94" target="7268VmPEQmdFCBt6fVRC-140" edge="1">
          <mxGeometry relative="1" as="geometry">
            <Array as="points">
              <mxPoint x="-510" y="1080" />
              <mxPoint x="-700" y="1080" />
              <mxPoint x="-700" y="1225" />
            </Array>
          </mxGeometry>
        </mxCell>
        <mxCell id="7268VmPEQmdFCBt6fVRC-231" style="edgeStyle=orthogonalEdgeStyle;rounded=0;orthogonalLoop=1;jettySize=auto;html=1;exitX=0.5;exitY=1;exitDx=0;exitDy=0;entryX=0;entryY=0.5;entryDx=0;entryDy=0;" parent="1" source="7268VmPEQmdFCBt6fVRC-94" target="7268VmPEQmdFCBt6fVRC-152" edge="1">
          <mxGeometry relative="1" as="geometry">
            <Array as="points">
              <mxPoint x="-510" y="1090" />
              <mxPoint x="-700" y="1090" />
              <mxPoint x="-700" y="1315" />
            </Array>
          </mxGeometry>
        </mxCell>
        <mxCell id="7268VmPEQmdFCBt6fVRC-232" style="edgeStyle=orthogonalEdgeStyle;rounded=0;orthogonalLoop=1;jettySize=auto;html=1;exitX=0.5;exitY=1;exitDx=0;exitDy=0;entryX=0;entryY=0.5;entryDx=0;entryDy=0;" parent="1" source="7268VmPEQmdFCBt6fVRC-94" target="7268VmPEQmdFCBt6fVRC-155" edge="1">
          <mxGeometry relative="1" as="geometry">
            <mxPoint x="-680" y="1370" as="targetPoint" />
            <Array as="points">
              <mxPoint x="-510" y="1100" />
              <mxPoint x="-700" y="1100" />
              <mxPoint x="-700" y="1405" />
            </Array>
          </mxGeometry>
        </mxCell>
        <mxCell id="7268VmPEQmdFCBt6fVRC-94" value="Quel collaborateur ?&lt;div&gt;&lt;br&gt;&lt;/div&gt;" style="html=1;overflow=block;blockSpacing=1;whiteSpace=wrap;fontSize=16.7;spacing=3.8;strokeColor=#666666;rounded=1;absoluteArcSize=1;arcSize=9;fillColor=#f5f5f5;strokeWidth=NaN;lucidId=Qgs722q_PT3A;align=center;fontColor=#333333;" parent="1" vertex="1">
          <mxGeometry x="-570" y="900" width="120" height="50" as="geometry" />
        </mxCell>
        <mxCell id="7268VmPEQmdFCBt6fVRC-131" style="edgeStyle=orthogonalEdgeStyle;rounded=0;orthogonalLoop=1;jettySize=auto;html=1;exitX=1;exitY=0.5;exitDx=0;exitDy=0;entryX=0;entryY=0.5;entryDx=0;entryDy=0;fillColor=#dae8fc;strokeColor=#3333FF;fontColor=#3333FF;" parent="1" source="7268VmPEQmdFCBt6fVRC-105" target="7268VmPEQmdFCBt6fVRC-98" edge="1">
          <mxGeometry relative="1" as="geometry" />
        </mxCell>
        <mxCell id="7268VmPEQmdFCBt6fVRC-105" value="&lt;div&gt;A travaillé ou travaille sur le même projet&lt;/div&gt;" style="html=1;overflow=block;blockSpacing=1;whiteSpace=wrap;fontSize=16.7;spacing=3.8;strokeColor=#666666;rounded=1;absoluteArcSize=1;arcSize=9;fillColor=#f5f5f5;strokeWidth=NaN;lucidId=Qgs722q_PT3A;align=left;fontColor=#333333;" parent="1" vertex="1">
          <mxGeometry x="-964.5" y="1100" width="150" height="70" as="geometry" />
        </mxCell>
        <mxCell id="7268VmPEQmdFCBt6fVRC-142" style="edgeStyle=orthogonalEdgeStyle;rounded=0;orthogonalLoop=1;jettySize=auto;html=1;entryX=0;entryY=0.5;entryDx=0;entryDy=0;strokeColor=#00CC00;exitX=1;exitY=0.75;exitDx=0;exitDy=0;" parent="1" source="7268VmPEQmdFCBt6fVRC-107" target="7268VmPEQmdFCBt6fVRC-140" edge="1">
          <mxGeometry relative="1" as="geometry">
            <mxPoint x="-690" y="1270" as="sourcePoint" />
            <mxPoint x="-590.4999999999995" y="1275" as="targetPoint" />
            <Array as="points">
              <mxPoint x="-729" y="1245" />
              <mxPoint x="-729" y="1225" />
            </Array>
          </mxGeometry>
        </mxCell>
        <mxCell id="7268VmPEQmdFCBt6fVRC-107" value="N&#39;a pas beaucoup de j/h dans sa stack" style="html=1;overflow=block;blockSpacing=1;whiteSpace=wrap;fontSize=16.7;spacing=3.8;strokeColor=#666666;rounded=1;absoluteArcSize=1;arcSize=9;fillColor=#f5f5f5;strokeWidth=NaN;lucidId=Qgs722q_PT3A;align=left;fontColor=#333333;" parent="1" vertex="1">
          <mxGeometry x="-964.5" y="1200" width="155" height="60" as="geometry" />
        </mxCell>
        <mxCell id="7268VmPEQmdFCBt6fVRC-108" value="A des tâches d&#39;une priorité inférieure" style="html=1;overflow=block;blockSpacing=1;whiteSpace=wrap;fontSize=16.7;spacing=3.8;strokeColor=#666666;rounded=1;absoluteArcSize=1;arcSize=9;fillColor=#f5f5f5;strokeWidth=NaN;lucidId=Qgs722q_PT3A;align=left;fontColor=#333333;" parent="1" vertex="1">
          <mxGeometry x="-964.5" y="1290" width="155" height="60" as="geometry" />
        </mxCell>
        <mxCell id="7268VmPEQmdFCBt6fVRC-129" style="edgeStyle=orthogonalEdgeStyle;rounded=0;orthogonalLoop=1;jettySize=auto;html=1;exitX=0.5;exitY=1;exitDx=0;exitDy=0;entryX=0;entryY=0.5;entryDx=0;entryDy=0;" parent="1" source="7268VmPEQmdFCBt6fVRC-94" target="7268VmPEQmdFCBt6fVRC-107" edge="1">
          <mxGeometry relative="1" as="geometry">
            <mxPoint x="-954" y="1149" as="targetPoint" />
            <mxPoint x="-500" y="960" as="sourcePoint" />
            <Array as="points">
              <mxPoint x="-510" y="1010" />
              <mxPoint x="-1040" y="1010" />
              <mxPoint x="-1040" y="1230" />
            </Array>
          </mxGeometry>
        </mxCell>
        <mxCell id="7268VmPEQmdFCBt6fVRC-132" value="" style="group;fontColor=#3333FF;" parent="1" vertex="1" connectable="0">
          <mxGeometry x="-675" y="1120" width="154.5" height="65" as="geometry" />
        </mxCell>
        <mxCell id="7268VmPEQmdFCBt6fVRC-98" value="&lt;font color=&quot;#3333ff&quot;&gt;Collaborateur 1&lt;/font&gt;" style="html=1;overflow=block;blockSpacing=1;whiteSpace=wrap;fontSize=16.7;spacing=3.8;strokeColor=#unset;rounded=1;absoluteArcSize=1;arcSize=9;fillColor=none;strokeWidth=NaN;lucidId=vhs7WFJ5v-HP;" parent="7268VmPEQmdFCBt6fVRC-132" vertex="1">
          <mxGeometry width="133.83110367892976" height="30" as="geometry" />
        </mxCell>
        <mxCell id="7268VmPEQmdFCBt6fVRC-116" value="3" style="ellipse;whiteSpace=wrap;html=1;aspect=fixed;" parent="7268VmPEQmdFCBt6fVRC-132" vertex="1">
          <mxGeometry x="133.83110367892976" y="5" width="20" height="20" as="geometry" />
        </mxCell>
        <mxCell id="7268VmPEQmdFCBt6fVRC-134" style="edgeStyle=orthogonalEdgeStyle;rounded=0;orthogonalLoop=1;jettySize=auto;html=1;exitX=1;exitY=0.5;exitDx=0;exitDy=0;entryX=0;entryY=0.5;entryDx=0;entryDy=0;fillColor=#dae8fc;strokeColor=#3333FF;fontColor=#3333FF;" parent="1" source="7268VmPEQmdFCBt6fVRC-107" target="7268VmPEQmdFCBt6fVRC-98" edge="1">
          <mxGeometry relative="1" as="geometry">
            <mxPoint x="-834" y="1149" as="sourcePoint" />
            <mxPoint x="-664" y="1149" as="targetPoint" />
          </mxGeometry>
        </mxCell>
        <mxCell id="7268VmPEQmdFCBt6fVRC-138" style="edgeStyle=orthogonalEdgeStyle;rounded=0;orthogonalLoop=1;jettySize=auto;html=1;exitX=1;exitY=0.5;exitDx=0;exitDy=0;entryX=0;entryY=0.5;entryDx=0;entryDy=0;fillColor=#dae8fc;strokeColor=#3333FF;fontColor=#3333FF;" parent="1" source="7268VmPEQmdFCBt6fVRC-108" target="7268VmPEQmdFCBt6fVRC-98" edge="1">
          <mxGeometry relative="1" as="geometry">
            <mxPoint x="-799" y="1240" as="sourcePoint" />
            <mxPoint x="-664" y="1149" as="targetPoint" />
          </mxGeometry>
        </mxCell>
        <mxCell id="7268VmPEQmdFCBt6fVRC-139" value="" style="group;fontColor=#00CC00;" parent="1" vertex="1" connectable="0">
          <mxGeometry x="-670" y="1210" width="149.5" height="30" as="geometry" />
        </mxCell>
        <mxCell id="7268VmPEQmdFCBt6fVRC-140" value="&lt;font color=&quot;#33ff33&quot;&gt;Collaborateur 2&lt;/font&gt;" style="html=1;overflow=block;blockSpacing=1;whiteSpace=wrap;fontSize=16.7;spacing=3.8;strokeColor=#unset;rounded=1;absoluteArcSize=1;arcSize=9;fillColor=none;strokeWidth=NaN;lucidId=vhs7WFJ5v-HP;" parent="7268VmPEQmdFCBt6fVRC-139" vertex="1">
          <mxGeometry width="129.5" height="30" as="geometry" />
        </mxCell>
        <mxCell id="7268VmPEQmdFCBt6fVRC-141" value="2" style="ellipse;whiteSpace=wrap;html=1;aspect=fixed;" parent="7268VmPEQmdFCBt6fVRC-139" vertex="1">
          <mxGeometry x="129.5" y="5" width="20" height="20" as="geometry" />
        </mxCell>
        <mxCell id="7268VmPEQmdFCBt6fVRC-143" style="edgeStyle=orthogonalEdgeStyle;rounded=0;orthogonalLoop=1;jettySize=auto;html=1;strokeColor=#00CC00;exitX=1;exitY=0.75;exitDx=0;exitDy=0;entryX=0;entryY=0.5;entryDx=0;entryDy=0;" parent="1" source="7268VmPEQmdFCBt6fVRC-105" target="7268VmPEQmdFCBt6fVRC-140" edge="1">
          <mxGeometry relative="1" as="geometry">
            <mxPoint x="-799" y="1255" as="sourcePoint" />
            <mxPoint x="-680" y="1180" as="targetPoint" />
            <Array as="points">
              <mxPoint x="-719" y="1154" />
              <mxPoint x="-719" y="1225" />
            </Array>
          </mxGeometry>
        </mxCell>
        <mxCell id="7268VmPEQmdFCBt6fVRC-145" value="" style="html=1;overflow=block;blockSpacing=1;whiteSpace=wrap;fontSize=16.7;spacing=3.8;strokeColor=#unset;rounded=1;absoluteArcSize=1;arcSize=9;fillColor=none;strokeWidth=NaN;lucidId=vhs7WFJ5v-HP;" parent="1" vertex="1">
          <mxGeometry x="-660" y="1330" width="129.5" height="30" as="geometry" />
        </mxCell>
        <mxCell id="7268VmPEQmdFCBt6fVRC-151" value="" style="group;fontColor=#00CC00;" parent="1" vertex="1" connectable="0">
          <mxGeometry x="-670" y="1300" width="149.5" height="30" as="geometry" />
        </mxCell>
        <mxCell id="7268VmPEQmdFCBt6fVRC-152" value="&lt;font color=&quot;#ff0000&quot;&gt;Collaborateur 3&lt;/font&gt;" style="html=1;overflow=block;blockSpacing=1;whiteSpace=wrap;fontSize=16.7;spacing=3.8;strokeColor=#unset;rounded=1;absoluteArcSize=1;arcSize=9;fillColor=none;strokeWidth=NaN;lucidId=vhs7WFJ5v-HP;" parent="7268VmPEQmdFCBt6fVRC-151" vertex="1">
          <mxGeometry width="129.5" height="30" as="geometry" />
        </mxCell>
        <mxCell id="7268VmPEQmdFCBt6fVRC-153" value="0" style="ellipse;whiteSpace=wrap;html=1;aspect=fixed;" parent="7268VmPEQmdFCBt6fVRC-151" vertex="1">
          <mxGeometry x="129.5" y="5" width="20" height="20" as="geometry" />
        </mxCell>
        <mxCell id="7268VmPEQmdFCBt6fVRC-154" value="" style="group;fontColor=#00CC00;" parent="1" vertex="1" connectable="0">
          <mxGeometry x="-670" y="1390" width="149.5" height="30" as="geometry" />
        </mxCell>
        <mxCell id="7268VmPEQmdFCBt6fVRC-156" value="1" style="ellipse;whiteSpace=wrap;html=1;aspect=fixed;" parent="7268VmPEQmdFCBt6fVRC-154" vertex="1">
          <mxGeometry x="129.5" y="5" width="20" height="20" as="geometry" />
        </mxCell>
        <mxCell id="7268VmPEQmdFCBt6fVRC-157" style="edgeStyle=orthogonalEdgeStyle;rounded=0;orthogonalLoop=1;jettySize=auto;html=1;entryX=0;entryY=0.5;entryDx=0;entryDy=0;strokeColor=#CCCC00;exitX=1;exitY=1;exitDx=0;exitDy=0;" parent="1" source="7268VmPEQmdFCBt6fVRC-105" target="7268VmPEQmdFCBt6fVRC-155" edge="1">
          <mxGeometry relative="1" as="geometry">
            <mxPoint x="-799" y="1255" as="sourcePoint" />
            <mxPoint x="-660" y="1235" as="targetPoint" />
            <Array as="points">
              <mxPoint x="-780" y="1169" />
              <mxPoint x="-780" y="1405" />
            </Array>
          </mxGeometry>
        </mxCell>
        <mxCell id="7268VmPEQmdFCBt6fVRC-155" value="&lt;font color=&quot;#cccc00&quot;&gt;Collaborateur 4&lt;/font&gt;" style="html=1;overflow=block;blockSpacing=1;whiteSpace=wrap;fontSize=16.7;spacing=3.8;strokeColor=#unset;rounded=1;absoluteArcSize=1;arcSize=9;fillColor=none;strokeWidth=NaN;lucidId=vhs7WFJ5v-HP;" parent="1" vertex="1">
          <mxGeometry x="-670" y="1390" width="129.5" height="30" as="geometry" />
        </mxCell>
        <mxCell id="7268VmPEQmdFCBt6fVRC-162" style="edgeStyle=orthogonalEdgeStyle;rounded=0;orthogonalLoop=1;jettySize=auto;html=1;exitX=0.5;exitY=1;exitDx=0;exitDy=0;" parent="1" source="7268VmPEQmdFCBt6fVRC-167" target="7268VmPEQmdFCBt6fVRC-170" edge="1">
          <mxGeometry relative="1" as="geometry">
            <mxPoint x="-330" y="1300" as="targetPoint" />
            <mxPoint x="-250.45" y="1240" as="sourcePoint" />
            <Array as="points">
              <mxPoint x="-250" y="1270" />
              <mxPoint x="-330" y="1270" />
            </Array>
          </mxGeometry>
        </mxCell>
        <mxCell id="7268VmPEQmdFCBt6fVRC-158" style="edgeStyle=orthogonalEdgeStyle;rounded=0;orthogonalLoop=1;jettySize=auto;html=1;entryX=0.5;entryY=0;entryDx=0;entryDy=0;" parent="1" source="7268VmPEQmdFCBt6fVRC-168" edge="1">
          <mxGeometry relative="1" as="geometry">
            <mxPoint x="-250" y="1195" as="targetPoint" />
          </mxGeometry>
        </mxCell>
        <mxCell id="7268VmPEQmdFCBt6fVRC-171" style="edgeStyle=orthogonalEdgeStyle;rounded=0;orthogonalLoop=1;jettySize=auto;html=1;exitX=0.5;exitY=1;exitDx=0;exitDy=0;entryX=0.5;entryY=0;entryDx=0;entryDy=0;" parent="1" source="7268VmPEQmdFCBt6fVRC-167" target="7268VmPEQmdFCBt6fVRC-172" edge="1">
          <mxGeometry relative="1" as="geometry">
            <mxPoint x="-159.99999999999955" y="1299.9999999999995" as="targetPoint" />
            <Array as="points">
              <mxPoint x="-250" y="1270" />
              <mxPoint x="-140" y="1270" />
            </Array>
          </mxGeometry>
        </mxCell>
        <mxCell id="7268VmPEQmdFCBt6fVRC-167" value="&lt;div&gt;Tâche débutée&lt;/div&gt;&lt;div&gt;&lt;br&gt;&lt;/div&gt;" style="html=1;overflow=block;blockSpacing=1;whiteSpace=wrap;fontSize=16.7;spacing=3.8;strokeColor=#666666;rounded=1;absoluteArcSize=1;arcSize=9;fillColor=#f5f5f5;strokeWidth=NaN;lucidId=Qgs722q_PT3A;align=center;fontColor=#333333;" parent="1" vertex="1">
          <mxGeometry x="-310" y="1200" width="120" height="30" as="geometry" />
        </mxCell>
        <mxCell id="7268VmPEQmdFCBt6fVRC-169" value="" style="edgeStyle=orthogonalEdgeStyle;rounded=0;orthogonalLoop=1;jettySize=auto;html=1;entryX=0;entryY=0.5;entryDx=0;entryDy=0;" parent="1" source="7268VmPEQmdFCBt6fVRC-116" target="7268VmPEQmdFCBt6fVRC-168" edge="1">
          <mxGeometry relative="1" as="geometry">
            <mxPoint x="-250" y="1195" as="targetPoint" />
            <mxPoint x="-521" y="1139" as="sourcePoint" />
          </mxGeometry>
        </mxCell>
        <mxCell id="7268VmPEQmdFCBt6fVRC-168" value="&lt;font style=&quot;font-size: 22px;&quot;&gt;A faire&lt;/font&gt;" style="rounded=1;whiteSpace=wrap;html=1;strokeWidth=2;fillWeight=4;hachureGap=8;hachureAngle=45;fillColor=#fff2cc;sketch=1;strokeColor=#d6b656;fillStyle=solid;" parent="1" vertex="1">
          <mxGeometry x="-480" y="1099" width="170" height="80" as="geometry" />
        </mxCell>
        <mxCell id="7268VmPEQmdFCBt6fVRC-173" style="edgeStyle=orthogonalEdgeStyle;rounded=0;orthogonalLoop=1;jettySize=auto;html=1;exitX=0.5;exitY=1;exitDx=0;exitDy=0;" parent="1" source="7268VmPEQmdFCBt6fVRC-170" target="7268VmPEQmdFCBt6fVRC-175" edge="1">
          <mxGeometry relative="1" as="geometry">
            <mxPoint x="-329.99999999999955" y="1409.9999999999995" as="targetPoint" />
          </mxGeometry>
        </mxCell>
        <mxCell id="7268VmPEQmdFCBt6fVRC-170" value="&lt;div&gt;Oui&lt;/div&gt;" style="html=1;overflow=block;blockSpacing=1;whiteSpace=wrap;fontSize=16.7;spacing=3.8;strokeColor=#unset;rounded=1;absoluteArcSize=1;arcSize=9;fillColor=none;strokeWidth=NaN;lucidId=Qgs722q_PT3A;align=center;" parent="1" vertex="1">
          <mxGeometry x="-390" y="1300" width="120" height="50" as="geometry" />
        </mxCell>
        <mxCell id="7268VmPEQmdFCBt6fVRC-182" style="edgeStyle=orthogonalEdgeStyle;rounded=0;orthogonalLoop=1;jettySize=auto;html=1;exitX=0.5;exitY=1;exitDx=0;exitDy=0;entryX=0.5;entryY=0;entryDx=0;entryDy=0;" parent="1" source="7268VmPEQmdFCBt6fVRC-172" target="7268VmPEQmdFCBt6fVRC-180" edge="1">
          <mxGeometry relative="1" as="geometry" />
        </mxCell>
        <mxCell id="7268VmPEQmdFCBt6fVRC-172" value="&lt;div&gt;Non, pourquoi ?&lt;/div&gt;" style="html=1;overflow=block;blockSpacing=1;whiteSpace=wrap;fontSize=16.7;spacing=3.8;strokeColor=#unset;rounded=1;absoluteArcSize=1;arcSize=9;fillColor=none;strokeWidth=NaN;lucidId=Qgs722q_PT3A;align=center;" parent="1" vertex="1">
          <mxGeometry x="-210" y="1300" width="140" height="50" as="geometry" />
        </mxCell>
        <mxCell id="7268VmPEQmdFCBt6fVRC-189" style="edgeStyle=orthogonalEdgeStyle;rounded=0;orthogonalLoop=1;jettySize=auto;html=1;exitX=0.5;exitY=1;exitDx=0;exitDy=0;entryX=0.5;entryY=0;entryDx=0;entryDy=0;" parent="1" source="7268VmPEQmdFCBt6fVRC-175" target="7268VmPEQmdFCBt6fVRC-192" edge="1">
          <mxGeometry relative="1" as="geometry">
            <mxPoint x="-510" y="1520" as="targetPoint" />
            <Array as="points">
              <mxPoint x="-330" y="1540" />
              <mxPoint x="-501" y="1540" />
            </Array>
          </mxGeometry>
        </mxCell>
        <mxCell id="7268VmPEQmdFCBt6fVRC-175" value="&lt;font style=&quot;font-size: 22px;&quot;&gt;En cours&lt;/font&gt;&lt;div&gt;&lt;font size=&quot;1&quot; style=&quot;&quot;&gt;&lt;i style=&quot;font-size: 13px;&quot;&gt;Maj du statut du collaborateur: ex. Travaille actuellement sur ...&lt;/i&gt;&lt;/font&gt;&lt;/div&gt;" style="rounded=1;whiteSpace=wrap;html=1;strokeWidth=2;fillWeight=4;hachureGap=8;hachureAngle=45;fillColor=#dae8fc;sketch=1;strokeColor=#6c8ebf;fillStyle=solid;align=center;" parent="1" vertex="1">
          <mxGeometry x="-417.5" y="1410" width="175" height="80" as="geometry" />
        </mxCell>
        <mxCell id="7268VmPEQmdFCBt6fVRC-187" style="edgeStyle=orthogonalEdgeStyle;rounded=0;orthogonalLoop=1;jettySize=auto;html=1;exitX=0.5;exitY=1;exitDx=0;exitDy=0;entryX=0.5;entryY=0;entryDx=0;entryDy=0;" parent="1" source="7268VmPEQmdFCBt6fVRC-180" target="7268VmPEQmdFCBt6fVRC-186" edge="1">
          <mxGeometry relative="1" as="geometry" />
        </mxCell>
        <mxCell id="7268VmPEQmdFCBt6fVRC-180" value="&lt;div&gt;Réalisation impossible&lt;/div&gt;" style="html=1;overflow=block;blockSpacing=1;whiteSpace=wrap;fontSize=16.7;spacing=3.8;strokeColor=#unset;rounded=1;absoluteArcSize=1;arcSize=9;fillColor=none;strokeWidth=NaN;lucidId=Qgs722q_PT3A;align=center;" parent="1" vertex="1">
          <mxGeometry x="-200" y="1420" width="120" height="50" as="geometry" />
        </mxCell>
        <mxCell id="7268VmPEQmdFCBt6fVRC-184" style="edgeStyle=orthogonalEdgeStyle;rounded=0;orthogonalLoop=1;jettySize=auto;html=1;exitX=0.5;exitY=1;exitDx=0;exitDy=0;entryX=0.5;entryY=0;entryDx=0;entryDy=0;" parent="1" source="7268VmPEQmdFCBt6fVRC-172" target="7268VmPEQmdFCBt6fVRC-185" edge="1">
          <mxGeometry relative="1" as="geometry">
            <mxPoint x="-130" y="1360" as="sourcePoint" />
            <mxPoint x="-10" y="1430" as="targetPoint" />
            <Array as="points">
              <mxPoint x="-140" y="1390" />
              <mxPoint x="8" y="1390" />
              <mxPoint x="8" y="1420" />
            </Array>
          </mxGeometry>
        </mxCell>
        <mxCell id="7268VmPEQmdFCBt6fVRC-188" style="edgeStyle=orthogonalEdgeStyle;rounded=0;orthogonalLoop=1;jettySize=auto;html=1;exitX=0.5;exitY=1;exitDx=0;exitDy=0;entryX=1;entryY=0.5;entryDx=0;entryDy=0;" parent="1" source="7268VmPEQmdFCBt6fVRC-185" target="7268VmPEQmdFCBt6fVRC-59" edge="1">
          <mxGeometry relative="1" as="geometry">
            <Array as="points">
              <mxPoint x="8" y="1490" />
              <mxPoint x="310" y="1490" />
              <mxPoint x="310" y="202" />
            </Array>
          </mxGeometry>
        </mxCell>
        <mxCell id="7268VmPEQmdFCBt6fVRC-185" value="&lt;div&gt;Manque de temps, de ressources ...&lt;/div&gt;" style="html=1;overflow=block;blockSpacing=1;whiteSpace=wrap;fontSize=16.7;spacing=3.8;strokeColor=#unset;rounded=1;absoluteArcSize=1;arcSize=9;fillColor=none;strokeWidth=NaN;lucidId=Qgs722q_PT3A;align=center;" parent="1" vertex="1">
          <mxGeometry x="-75" y="1420" width="165" height="50" as="geometry" />
        </mxCell>
        <mxCell id="7268VmPEQmdFCBt6fVRC-186" value="&lt;span style=&quot;font-size: 22px;&quot;&gt;Annulée&lt;/span&gt;" style="rounded=1;whiteSpace=wrap;html=1;strokeWidth=2;fillWeight=4;hachureGap=8;hachureAngle=45;fillColor=#f8cecc;sketch=1;strokeColor=#b85450;fillStyle=solid;align=center;labelBackgroundColor=none;" parent="1" vertex="1">
          <mxGeometry x="-227.5" y="1730" width="175" height="80" as="geometry" />
        </mxCell>
        <mxCell id="7268VmPEQmdFCBt6fVRC-194" style="edgeStyle=orthogonalEdgeStyle;rounded=0;orthogonalLoop=1;jettySize=auto;html=1;exitX=0.5;exitY=1;exitDx=0;exitDy=0;" parent="1" source="7268VmPEQmdFCBt6fVRC-190" edge="1">
          <mxGeometry relative="1" as="geometry">
            <mxPoint x="-499.92307692307713" y="1880" as="targetPoint" />
          </mxGeometry>
        </mxCell>
        <mxCell id="7268VmPEQmdFCBt6fVRC-190" value="&lt;span style=&quot;font-size: 22px;&quot;&gt;A valider&lt;/span&gt;" style="rounded=1;whiteSpace=wrap;html=1;strokeWidth=2;fillWeight=4;hachureGap=8;hachureAngle=45;fillColor=#e1d5e7;sketch=1;strokeColor=#9673a6;fillStyle=solid;align=center;" parent="1" vertex="1">
          <mxGeometry x="-588" y="1740" width="175" height="80" as="geometry" />
        </mxCell>
        <mxCell id="7268VmPEQmdFCBt6fVRC-193" style="edgeStyle=orthogonalEdgeStyle;rounded=0;orthogonalLoop=1;jettySize=auto;html=1;exitX=0.5;exitY=1;exitDx=0;exitDy=0;entryX=0.5;entryY=0;entryDx=0;entryDy=0;" parent="1" source="7268VmPEQmdFCBt6fVRC-192" target="7268VmPEQmdFCBt6fVRC-207" edge="1">
          <mxGeometry relative="1" as="geometry" />
        </mxCell>
        <mxCell id="7268VmPEQmdFCBt6fVRC-192" value="&lt;div&gt;Tâche terminée&lt;/div&gt;" style="html=1;overflow=block;blockSpacing=1;whiteSpace=wrap;fontSize=16.7;spacing=3.8;strokeColor=#666666;rounded=1;absoluteArcSize=1;arcSize=9;fillColor=#f5f5f5;strokeWidth=NaN;lucidId=Qgs722q_PT3A;align=center;fontColor=#333333;" parent="1" vertex="1">
          <mxGeometry x="-577" y="1570" width="150.5" height="50" as="geometry" />
        </mxCell>
        <mxCell id="7268VmPEQmdFCBt6fVRC-196" style="edgeStyle=orthogonalEdgeStyle;rounded=0;orthogonalLoop=1;jettySize=auto;html=1;exitX=0.5;exitY=1;exitDx=0;exitDy=0;entryX=0.5;entryY=0;entryDx=0;entryDy=0;" parent="1" source="7268VmPEQmdFCBt6fVRC-195" target="7268VmPEQmdFCBt6fVRC-197" edge="1">
          <mxGeometry relative="1" as="geometry">
            <mxPoint x="-620" y="2010" as="targetPoint" />
          </mxGeometry>
        </mxCell>
        <mxCell id="7268VmPEQmdFCBt6fVRC-204" style="edgeStyle=orthogonalEdgeStyle;rounded=0;orthogonalLoop=1;jettySize=auto;html=1;exitX=0.5;exitY=1;exitDx=0;exitDy=0;entryX=0.5;entryY=0;entryDx=0;entryDy=0;" parent="1" source="7268VmPEQmdFCBt6fVRC-195" target="7268VmPEQmdFCBt6fVRC-205" edge="1">
          <mxGeometry relative="1" as="geometry">
            <mxPoint x="-360" y="2010" as="targetPoint" />
          </mxGeometry>
        </mxCell>
        <mxCell id="7268VmPEQmdFCBt6fVRC-195" value="&lt;div&gt;Tâche validée&lt;/div&gt;" style="html=1;overflow=block;blockSpacing=1;whiteSpace=wrap;fontSize=16.7;spacing=3.8;strokeColor=#666666;rounded=1;absoluteArcSize=1;arcSize=9;fillColor=#f5f5f5;strokeWidth=NaN;lucidId=Qgs722q_PT3A;align=center;fontColor=#333333;" parent="1" vertex="1">
          <mxGeometry x="-575.75" y="1880" width="150.5" height="50" as="geometry" />
        </mxCell>
        <mxCell id="7268VmPEQmdFCBt6fVRC-203" style="edgeStyle=orthogonalEdgeStyle;rounded=0;orthogonalLoop=1;jettySize=auto;html=1;exitX=0.5;exitY=1;exitDx=0;exitDy=0;entryX=0.5;entryY=0;entryDx=0;entryDy=0;" parent="1" source="7268VmPEQmdFCBt6fVRC-197" target="7268VmPEQmdFCBt6fVRC-202" edge="1">
          <mxGeometry relative="1" as="geometry" />
        </mxCell>
        <mxCell id="7268VmPEQmdFCBt6fVRC-197" value="&lt;div&gt;Oui (càd que toutes les definitions of done sont vérifiées)&lt;/div&gt;" style="html=1;overflow=block;blockSpacing=1;whiteSpace=wrap;fontSize=16.7;spacing=3.8;strokeColor=#unset;rounded=1;absoluteArcSize=1;arcSize=9;fillColor=none;strokeWidth=NaN;lucidId=Qgs722q_PT3A;align=center;" parent="1" vertex="1">
          <mxGeometry x="-750.62" y="2010" width="265.25" height="70" as="geometry" />
        </mxCell>
        <mxCell id="7268VmPEQmdFCBt6fVRC-202" value="&lt;span style=&quot;font-size: 22px;&quot;&gt;Terminée&lt;/span&gt;" style="rounded=1;whiteSpace=wrap;html=1;strokeWidth=2;fillWeight=4;hachureGap=8;hachureAngle=45;fillColor=#d5e8d4;sketch=1;strokeColor=#82b366;fillStyle=solid;align=center;" parent="1" vertex="1">
          <mxGeometry x="-705.5" y="2140" width="175" height="80" as="geometry" />
        </mxCell>
        <mxCell id="7268VmPEQmdFCBt6fVRC-206" style="edgeStyle=orthogonalEdgeStyle;rounded=0;orthogonalLoop=1;jettySize=auto;html=1;exitX=0.5;exitY=1;exitDx=0;exitDy=0;entryX=0.5;entryY=0;entryDx=0;entryDy=0;" parent="1" source="7268VmPEQmdFCBt6fVRC-205" target="7268VmPEQmdFCBt6fVRC-168" edge="1">
          <mxGeometry relative="1" as="geometry">
            <mxPoint x="-320" y="1690" as="targetPoint" />
            <Array as="points">
              <mxPoint x="-360" y="2060" />
              <mxPoint x="200" y="2060" />
              <mxPoint x="200" y="1060" />
              <mxPoint x="-395" y="1060" />
            </Array>
          </mxGeometry>
        </mxCell>
        <mxCell id="7268VmPEQmdFCBt6fVRC-205" value="&lt;div&gt;Non&lt;/div&gt;" style="html=1;overflow=block;blockSpacing=1;whiteSpace=wrap;fontSize=16.7;spacing=3.8;strokeColor=#unset;rounded=1;absoluteArcSize=1;arcSize=9;fillColor=none;strokeWidth=NaN;lucidId=Qgs722q_PT3A;align=center;" parent="1" vertex="1">
          <mxGeometry x="-417.5" y="2010" width="115" height="30" as="geometry" />
        </mxCell>
        <mxCell id="7268VmPEQmdFCBt6fVRC-208" style="edgeStyle=orthogonalEdgeStyle;rounded=0;orthogonalLoop=1;jettySize=auto;html=1;exitX=0.5;exitY=1;exitDx=0;exitDy=0;entryX=0.5;entryY=0;entryDx=0;entryDy=0;" parent="1" source="7268VmPEQmdFCBt6fVRC-207" target="7268VmPEQmdFCBt6fVRC-190" edge="1">
          <mxGeometry relative="1" as="geometry" />
        </mxCell>
        <mxCell id="7268VmPEQmdFCBt6fVRC-207" value="&lt;div&gt;Oui&lt;/div&gt;" style="html=1;overflow=block;blockSpacing=1;whiteSpace=wrap;fontSize=16.7;spacing=3.8;strokeColor=#unset;rounded=1;absoluteArcSize=1;arcSize=9;fillColor=none;strokeWidth=NaN;lucidId=Qgs722q_PT3A;align=center;" parent="1" vertex="1">
          <mxGeometry x="-560.5" y="1650" width="120" height="50" as="geometry" />
        </mxCell>
        <mxCell id="7268VmPEQmdFCBt6fVRC-209" style="edgeStyle=orthogonalEdgeStyle;rounded=0;orthogonalLoop=1;jettySize=auto;html=1;exitX=1;exitY=0.5;exitDx=0;exitDy=0;entryX=0;entryY=0.5;entryDx=0;entryDy=0;" parent="1" source="7268VmPEQmdFCBt6fVRC-192" target="7268VmPEQmdFCBt6fVRC-172" edge="1">
          <mxGeometry relative="1" as="geometry">
            <mxPoint x="-331.5" y="1600" as="sourcePoint" />
            <mxPoint x="-317.5" y="1620" as="targetPoint" />
            <Array as="points">
              <mxPoint x="-230" y="1595" />
              <mxPoint x="-230" y="1325" />
            </Array>
          </mxGeometry>
        </mxCell>
        <mxCell id="7268VmPEQmdFCBt6fVRC-212" value="&lt;font style=&quot;font-size: 22px;&quot;&gt;Backlog&lt;/font&gt;" style="rounded=1;whiteSpace=wrap;html=1;strokeWidth=2;fillWeight=4;hachureGap=8;hachureAngle=45;fillColor=#ffe6cc;sketch=1;strokeColor=#d79b00;fillStyle=solid;align=center;labelBackgroundColor=none;" parent="1" vertex="1">
          <mxGeometry x="-297.5" y="920" width="175" height="80" as="geometry" />
        </mxCell>
        <mxCell id="7268VmPEQmdFCBt6fVRC-217" value="&lt;font style=&quot;font-size: 18px;&quot;&gt;Bug en production&lt;/font&gt;" style="shape=tape;whiteSpace=wrap;html=1;strokeWidth=2;size=0.19;fillColor=#fa6800;fontColor=#000000;strokeColor=#C73500;" parent="1" vertex="1">
          <mxGeometry x="-930" y="-76.5" width="136" height="95" as="geometry" />
        </mxCell>
        <mxCell id="7268VmPEQmdFCBt6fVRC-218" value="&lt;font style=&quot;font-size: 20px;&quot;&gt;Elevée&lt;/font&gt;" style="strokeWidth=2;html=1;shape=mxgraph.flowchart.terminator;whiteSpace=wrap;fillColor=#f8cecc;strokeColor=#b85450;" parent="1" vertex="1">
          <mxGeometry x="-860" y="330" width="100" height="60" as="geometry" />
        </mxCell>
        <mxCell id="7268VmPEQmdFCBt6fVRC-219" value="&lt;font style=&quot;font-size: 20px;&quot;&gt;Importante&lt;/font&gt;" style="strokeWidth=2;html=1;shape=mxgraph.flowchart.terminator;whiteSpace=wrap;fillColor=#fff2cc;strokeColor=#d6b656;" parent="1" vertex="1">
          <mxGeometry x="-675" y="330" width="125" height="60" as="geometry" />
        </mxCell>
        <mxCell id="7268VmPEQmdFCBt6fVRC-220" value="&lt;font style=&quot;font-size: 20px;&quot;&gt;Moyenne&lt;/font&gt;" style="strokeWidth=2;html=1;shape=mxgraph.flowchart.terminator;whiteSpace=wrap;fillColor=#dae8fc;strokeColor=#6c8ebf;" parent="1" vertex="1">
          <mxGeometry x="-482.5" y="330" width="125" height="60" as="geometry" />
        </mxCell>
        <mxCell id="7268VmPEQmdFCBt6fVRC-222" value="&lt;font style=&quot;font-size: 20px;&quot;&gt;Faible&lt;/font&gt;" style="strokeWidth=2;html=1;shape=mxgraph.flowchart.terminator;whiteSpace=wrap;fillColor=#d5e8d4;strokeColor=#82b366;" parent="1" vertex="1">
          <mxGeometry x="-272" y="330" width="125" height="60" as="geometry" />
        </mxCell>
        <mxCell id="7268VmPEQmdFCBt6fVRC-223" value="&lt;font style=&quot;font-size: 18px;&quot;&gt;Amélioration de fonctionnalité&lt;/font&gt;" style="shape=tape;whiteSpace=wrap;html=1;strokeWidth=2;size=0.19;fillColor=#b0e3e6;strokeColor=#0e8088;" parent="1" vertex="1">
          <mxGeometry x="-709.08" y="-76.5" width="148.58" height="88.5" as="geometry" />
        </mxCell>
        <mxCell id="7268VmPEQmdFCBt6fVRC-224" value="&lt;font style=&quot;font-size: 18px;&quot;&gt;Demande particulière&lt;/font&gt;" style="shape=tape;whiteSpace=wrap;html=1;strokeWidth=2;size=0.19;fillColor=#ffcc99;strokeColor=#36393d;" parent="1" vertex="1">
          <mxGeometry x="-255" y="-70" width="150" height="88.5" as="geometry" />
        </mxCell>
        <mxCell id="7268VmPEQmdFCBt6fVRC-225" value="&lt;font style=&quot;font-size: 18px;&quot;&gt;Nouvelle fonctionnalité&lt;/font&gt;" style="shape=tape;whiteSpace=wrap;html=1;strokeWidth=2;size=0.19;fillColor=#cdeb8b;strokeColor=#36393d;" parent="1" vertex="1">
          <mxGeometry x="-485.5" y="-70" width="144" height="88.5" as="geometry" />
        </mxCell>
        <mxCell id="rSfY7DQMtMcE7dQKI5tD-2" value="" style="endArrow=classic;html=1;rounded=0;strokeWidth=8;" parent="1" edge="1">
          <mxGeometry width="50" height="50" relative="1" as="geometry">
            <mxPoint x="-525" y="-850" as="sourcePoint" />
            <mxPoint x="-524.79" y="-479" as="targetPoint" />
          </mxGeometry>
        </mxCell>
        <mxCell id="Gzr5Rtqw3fELn65NTnm0-4" value="&lt;div&gt;&lt;font style=&quot;font-size: 19px;&quot;&gt;&lt;i&gt;Partie développeurs/assignés aux tâches&lt;/i&gt;&lt;/font&gt;&lt;/div&gt;" style="html=1;overflow=block;blockSpacing=1;whiteSpace=wrap;fontSize=16.7;spacing=3.8;strokeColor=#unset;rounded=1;absoluteArcSize=1;arcSize=9;fillColor=none;strokeWidth=NaN;lucidId=Qgs722q_PT3A;align=left;" parent="1" vertex="1">
          <mxGeometry x="-1170" y="495" width="440" height="35" as="geometry" />
        </mxCell>
        <mxCell id="KmAEbtHQRBGaexXC9Sj9-3" value="&lt;font style=&quot;font-size: 20px;&quot;&gt;&lt;i&gt;Partie commerciale/créateur de tâches.&lt;/i&gt;&lt;/font&gt;" style="html=1;overflow=block;blockSpacing=1;whiteSpace=wrap;fontSize=16.7;spacing=3.8;strokeColor=#unset;rounded=1;absoluteArcSize=1;arcSize=9;fillColor=none;strokeWidth=NaN;lucidId=Qgs722q_PT3A;align=left;" parent="1" vertex="1">
          <mxGeometry x="-990" y="-600" width="440" height="35" as="geometry" />
        </mxCell>
        <mxCell id="KmAEbtHQRBGaexXC9Sj9-8" value="" style="group" parent="1" vertex="1" connectable="0">
          <mxGeometry x="-105" y="1780" width="90" height="44" as="geometry" />
        </mxCell>
        <mxCell id="KmAEbtHQRBGaexXC9Sj9-5" value="" style="strokeColor=#dddddd;shadow=1;strokeWidth=1;rounded=1;absoluteArcSize=1;arcSize=2;" parent="KmAEbtHQRBGaexXC9Sj9-8" vertex="1">
          <mxGeometry width="90" height="44" as="geometry" />
        </mxCell>
        <mxCell id="KmAEbtHQRBGaexXC9Sj9-4" value="" style="html=1;verticalLabelPosition=bottom;align=center;labelBackgroundColor=#ffffff;verticalAlign=top;strokeWidth=2;strokeColor=#0080F0;shadow=0;dashed=0;shape=mxgraph.ios7.icons.alarm_clock;" parent="KmAEbtHQRBGaexXC9Sj9-8" vertex="1">
          <mxGeometry x="6.43" y="9.17" width="21.57" height="25.67" as="geometry" />
        </mxCell>
        <mxCell id="KmAEbtHQRBGaexXC9Sj9-7" value="&lt;div style=&quot;font-size: 12px;&quot;&gt;&lt;span style=&quot;background-color: initial;&quot;&gt;Créateur&lt;/span&gt;&lt;br&gt;&lt;/div&gt;" style="html=1;overflow=block;blockSpacing=1;whiteSpace=wrap;fontSize=16.7;spacing=3.8;strokeColor=#unset;rounded=1;absoluteArcSize=1;arcSize=9;fillColor=none;strokeWidth=NaN;lucidId=Qgs722q_PT3A;align=left;fontStyle=2" parent="KmAEbtHQRBGaexXC9Sj9-8" vertex="1">
          <mxGeometry x="34.00285714285714" y="0.01" width="39.85714285714286" height="44" as="geometry" />
        </mxCell>
        <mxCell id="KmAEbtHQRBGaexXC9Sj9-9" value="" style="group" parent="1" vertex="1" connectable="0">
          <mxGeometry x="-460" y="1790" width="104" height="42" as="geometry" />
        </mxCell>
        <mxCell id="KmAEbtHQRBGaexXC9Sj9-10" value="" style="strokeColor=#dddddd;shadow=1;strokeWidth=1;rounded=1;absoluteArcSize=1;arcSize=2;" parent="KmAEbtHQRBGaexXC9Sj9-9" vertex="1">
          <mxGeometry width="104" height="42" as="geometry" />
        </mxCell>
        <mxCell id="KmAEbtHQRBGaexXC9Sj9-11" value="" style="html=1;verticalLabelPosition=bottom;align=center;labelBackgroundColor=#ffffff;verticalAlign=top;strokeWidth=2;strokeColor=#0080F0;shadow=0;dashed=0;shape=mxgraph.ios7.icons.alarm_clock;" parent="KmAEbtHQRBGaexXC9Sj9-9" vertex="1">
          <mxGeometry x="7.428571428571429" y="8.75" width="22.28571428571429" height="24.5" as="geometry" />
        </mxCell>
        <mxCell id="KmAEbtHQRBGaexXC9Sj9-12" value="&lt;div style=&quot;font-size: 12px;&quot;&gt;&lt;span style=&quot;background-color: initial;&quot;&gt;PO&lt;/span&gt;&lt;br&gt;&lt;/div&gt;" style="html=1;overflow=block;blockSpacing=1;whiteSpace=wrap;fontSize=16.7;spacing=3.8;strokeColor=#unset;rounded=1;absoluteArcSize=1;arcSize=9;fillColor=none;strokeWidth=NaN;lucidId=Qgs722q_PT3A;align=left;fontStyle=2" parent="KmAEbtHQRBGaexXC9Sj9-9" vertex="1">
          <mxGeometry x="38" width="66" height="42" as="geometry" />
        </mxCell>
        <mxCell id="KmAEbtHQRBGaexXC9Sj9-13" value="" style="group" parent="1" vertex="1" connectable="0">
          <mxGeometry x="-560" y="2180" width="101" height="48" as="geometry" />
        </mxCell>
        <mxCell id="KmAEbtHQRBGaexXC9Sj9-14" value="" style="strokeColor=#dddddd;shadow=1;strokeWidth=1;rounded=1;absoluteArcSize=1;arcSize=2;" parent="KmAEbtHQRBGaexXC9Sj9-13" vertex="1">
          <mxGeometry width="101" height="48" as="geometry" />
        </mxCell>
        <mxCell id="KmAEbtHQRBGaexXC9Sj9-15" value="" style="html=1;verticalLabelPosition=bottom;align=center;labelBackgroundColor=#ffffff;verticalAlign=top;strokeWidth=2;strokeColor=#0080F0;shadow=0;dashed=0;shape=mxgraph.ios7.icons.alarm_clock;" parent="KmAEbtHQRBGaexXC9Sj9-13" vertex="1">
          <mxGeometry x="7.211399999999999" y="10" width="27.1286" height="28" as="geometry" />
        </mxCell>
        <mxCell id="KmAEbtHQRBGaexXC9Sj9-16" value="&lt;div&gt;&lt;span style=&quot;font-size: 12px; background-color: initial;&quot;&gt;Créateur&lt;/span&gt;&lt;br&gt;&lt;/div&gt;" style="html=1;overflow=block;blockSpacing=1;whiteSpace=wrap;fontSize=16.7;spacing=3.8;strokeColor=#unset;rounded=1;absoluteArcSize=1;arcSize=9;fillColor=none;strokeWidth=NaN;lucidId=Qgs722q_PT3A;align=left;fontStyle=2" parent="KmAEbtHQRBGaexXC9Sj9-13" vertex="1">
          <mxGeometry x="40.4" width="60.6" height="48" as="geometry" />
        </mxCell>
        <mxCell id="KmAEbtHQRBGaexXC9Sj9-17" value="" style="group" parent="1" vertex="1" connectable="0">
          <mxGeometry x="-310" y="1486" width="150" height="44" as="geometry" />
        </mxCell>
        <mxCell id="KmAEbtHQRBGaexXC9Sj9-18" value="" style="strokeColor=#dddddd;shadow=1;strokeWidth=1;rounded=1;absoluteArcSize=1;arcSize=2;" parent="KmAEbtHQRBGaexXC9Sj9-17" vertex="1">
          <mxGeometry width="140" height="44" as="geometry" />
        </mxCell>
        <mxCell id="KmAEbtHQRBGaexXC9Sj9-19" value="" style="html=1;verticalLabelPosition=bottom;align=center;labelBackgroundColor=#ffffff;verticalAlign=top;strokeWidth=2;strokeColor=#0080F0;shadow=0;dashed=0;shape=mxgraph.ios7.icons.alarm_clock;" parent="KmAEbtHQRBGaexXC9Sj9-17" vertex="1">
          <mxGeometry x="9.999999999999998" y="9.166666666666666" width="30" height="25.666666666666664" as="geometry" />
        </mxCell>
        <mxCell id="KmAEbtHQRBGaexXC9Sj9-20" value="&lt;div style=&quot;font-size: 12px;&quot;&gt;&lt;span style=&quot;background-color: initial;&quot;&gt;&amp;nbsp;PO &amp;amp; Créateur&lt;/span&gt;&lt;br&gt;&lt;/div&gt;" style="html=1;overflow=block;blockSpacing=1;whiteSpace=wrap;fontSize=16.7;spacing=3.8;strokeColor=#unset;rounded=1;absoluteArcSize=1;arcSize=9;fillColor=none;strokeWidth=NaN;lucidId=Qgs722q_PT3A;align=left;fontStyle=2" parent="KmAEbtHQRBGaexXC9Sj9-17" vertex="1">
          <mxGeometry x="39.99999999999999" width="109.99999999999999" height="44" as="geometry" />
        </mxCell>
        <mxCell id="KmAEbtHQRBGaexXC9Sj9-25" value="&lt;font style=&quot;font-size: 29px;&quot;&gt;&amp;nbsp;Légende&lt;/font&gt;&lt;div&gt;&lt;ul&gt;&lt;li&gt;&lt;font size=&quot;1&quot; style=&quot;&quot;&gt;&lt;span style=&quot;font-size: 17px;&quot;&gt;&lt;b style=&quot;&quot;&gt;PO&lt;/b&gt;: A Toulouse, sont rôle est essentiellement de donner une estimation des tâches et de les attribuer aux collaborateur.&lt;/span&gt;&lt;/font&gt;&lt;/li&gt;&lt;li&gt;&lt;font size=&quot;1&quot; style=&quot;&quot;&gt;&lt;span style=&quot;font-size: 17px;&quot;&gt;&lt;b&gt;Definition of done&lt;/b&gt;: Ensemble des éléments technique qui permette qui sont vérifiable et qui permettent de dire de manière binaire si la tâche est résolue ou non.&lt;/span&gt;&lt;/font&gt;&lt;/li&gt;&lt;li&gt;&lt;b&gt;Notification&lt;/b&gt;: Notification envoyé vers la personne mentionnée via le système de notification interne à Todoleads. On ne parle pas ici d&#39;envoi de mail.&lt;/li&gt;&lt;/ul&gt;&lt;/div&gt;" style="html=1;overflow=block;blockSpacing=1;whiteSpace=wrap;fontSize=16.7;spacing=3.8;strokeColor=#FF0000;rounded=1;absoluteArcSize=1;arcSize=9;fillColor=none;strokeWidth=3;lucidId=Qgs722q_PT3A;align=left;perimeterSpacing=9;" parent="1" vertex="1">
          <mxGeometry x="-1540" y="2360" width="540" height="380" as="geometry" />
        </mxCell>
        <mxCell id="KmAEbtHQRBGaexXC9Sj9-34" value="" style="group" parent="1" vertex="1" connectable="0">
          <mxGeometry x="-554.5" y="468" width="90" height="47" as="geometry" />
        </mxCell>
        <mxCell id="KmAEbtHQRBGaexXC9Sj9-22" value="" style="strokeColor=#dddddd;shadow=1;strokeWidth=1;rounded=1;absoluteArcSize=1;arcSize=2;" parent="KmAEbtHQRBGaexXC9Sj9-34" vertex="1">
          <mxGeometry width="90" height="40" as="geometry" />
        </mxCell>
        <mxCell id="KmAEbtHQRBGaexXC9Sj9-27" value="" style="group" parent="KmAEbtHQRBGaexXC9Sj9-34" vertex="1" connectable="0">
          <mxGeometry width="90" height="40" as="geometry" />
        </mxCell>
        <mxCell id="KmAEbtHQRBGaexXC9Sj9-23" value="" style="html=1;verticalLabelPosition=bottom;align=center;labelBackgroundColor=#ffffff;verticalAlign=top;strokeWidth=2;strokeColor=#0080F0;shadow=0;dashed=0;shape=mxgraph.ios7.icons.alarm_clock;" parent="KmAEbtHQRBGaexXC9Sj9-27" vertex="1">
          <mxGeometry x="10" y="8.33" width="23.57" height="23.33" as="geometry" />
        </mxCell>
        <mxCell id="KmAEbtHQRBGaexXC9Sj9-24" value="&lt;div style=&quot;font-size: 12px;&quot;&gt;&lt;span style=&quot;background-color: initial;&quot;&gt;PO&lt;/span&gt;&lt;/div&gt;" style="html=1;overflow=block;blockSpacing=1;whiteSpace=wrap;fontSize=16.7;spacing=3.8;strokeColor=#unset;rounded=1;absoluteArcSize=1;arcSize=9;fillColor=none;strokeWidth=NaN;lucidId=Qgs722q_PT3A;align=left;fontStyle=2" parent="KmAEbtHQRBGaexXC9Sj9-27" vertex="1">
          <mxGeometry x="47" y="-0.009999999999990905" width="30" height="40" as="geometry" />
        </mxCell>
        <mxCell id="KmAEbtHQRBGaexXC9Sj9-39" value="&lt;font style=&quot;font-size: 29px;&quot;&gt;&amp;nbsp;Collaborateur&lt;/font&gt;&lt;div&gt;&lt;font style=&quot;font-size: 17px;&quot;&gt;&amp;nbsp; est défini, par rapport au tâches, par:&lt;/font&gt;&lt;div&gt;&lt;ul&gt;&lt;li&gt;&lt;b&gt;Temps de travail estimé de sa stack&lt;/b&gt;&lt;/li&gt;&lt;li&gt;&lt;b&gt;Lien avec le projet lié à la tâche&lt;/b&gt;&lt;/li&gt;&lt;li&gt;&lt;b&gt;Priorité de ses tâches&lt;/b&gt;&lt;/li&gt;&lt;/ul&gt;&lt;/div&gt;&lt;/div&gt;" style="html=1;overflow=block;blockSpacing=1;whiteSpace=wrap;fontSize=16.7;spacing=3.8;strokeColor=#6c8ebf;rounded=1;absoluteArcSize=1;arcSize=9;fillColor=#dae8fc;strokeWidth=3;lucidId=Qgs722q_PT3A;align=left;perimeterSpacing=9;" parent="1" vertex="1">
          <mxGeometry x="-1615" y="-600" width="540" height="380" as="geometry" />
        </mxCell>
        <mxCell id="KmAEbtHQRBGaexXC9Sj9-40" value="&lt;font style=&quot;font-size: 29px;&quot;&gt;&amp;nbsp;Tâche&lt;/font&gt;&lt;div&gt;&lt;font style=&quot;font-size: 17px;&quot;&gt;&amp;nbsp; est définie par&lt;/font&gt;&lt;br&gt;&lt;div&gt;&lt;ul&gt;&lt;li&gt;&lt;b style=&quot;background-color: initial;&quot;&gt;Titre&lt;/b&gt;&lt;br&gt;&lt;/li&gt;&lt;li&gt;&lt;b style=&quot;background-color: initial;&quot;&gt;Description&lt;/b&gt;&lt;/li&gt;&lt;li&gt;&lt;b style=&quot;background-color: initial;&quot;&gt;Temps estimé &lt;/b&gt;&lt;span style=&quot;background-color: initial;&quot;&gt;&lt;i&gt;(en jour de travail par personne par jour)&lt;/i&gt;&lt;/span&gt;&lt;/li&gt;&lt;li&gt;&lt;span style=&quot;background-color: initial;&quot;&gt;&lt;b&gt;Echéance&lt;/b&gt;&lt;/span&gt;&lt;/li&gt;&lt;li&gt;&lt;b&gt;Durée réelle&lt;/b&gt;&lt;/li&gt;&lt;li&gt;&lt;b style=&quot;background-color: initial;&quot;&gt;Definition of done&lt;/b&gt;&lt;/li&gt;&lt;li&gt;&lt;b style=&quot;background-color: initial;&quot;&gt;Catégorie &lt;/b&gt;&lt;span style=&quot;background-color: initial;&quot;&gt;&lt;i&gt;(bug en prod, amélioration, nouvelle fonctionnalité, demande particulière)&lt;/i&gt;&lt;/span&gt;&lt;/li&gt;&lt;li&gt;&lt;b style=&quot;background-color: initial;&quot;&gt;Priorité &lt;/b&gt;&lt;span style=&quot;background-color: initial;&quot;&gt;&lt;i&gt;(Elevée, Importante, Moyenne, Faible)&lt;/i&gt;&lt;/span&gt;&lt;/li&gt;&lt;li&gt;&lt;b style=&quot;background-color: initial;&quot;&gt;Statut &lt;/b&gt;&lt;span style=&quot;background-color: initial;&quot;&gt;&lt;i&gt;(Backlog, A faire, En cours, A valider, Terminée, Annulée)&lt;/i&gt;&lt;/span&gt;&lt;/li&gt;&lt;li&gt;&lt;b&gt;Pièces jointes&lt;/b&gt;&lt;/li&gt;&lt;li&gt;&lt;b&gt;Technique &lt;/b&gt;&lt;i&gt;(oui, non)&lt;/i&gt;&lt;/li&gt;&lt;li&gt;&lt;b&gt;Créateur&lt;/b&gt;&lt;/li&gt;&lt;li&gt;&lt;b&gt;Assigné&lt;/b&gt;&lt;/li&gt;&lt;li&gt;&lt;b&gt;Projet lié&lt;/b&gt;&lt;/li&gt;&lt;li&gt;&lt;b&gt;Archivée le&lt;/b&gt;&lt;/li&gt;&lt;li&gt;&lt;b&gt;Créé le&lt;/b&gt;&lt;/li&gt;&lt;li&gt;&lt;b&gt;Supprimée le&lt;/b&gt;&lt;/li&gt;&lt;/ul&gt;&lt;/div&gt;&lt;/div&gt;" style="html=1;overflow=block;blockSpacing=1;whiteSpace=wrap;fontSize=16.7;spacing=3.8;strokeColor=#6c8ebf;rounded=1;absoluteArcSize=1;arcSize=9;fillColor=#dae8fc;strokeWidth=3;lucidId=Qgs722q_PT3A;align=left;perimeterSpacing=9;" parent="1" vertex="1">
          <mxGeometry x="-1615" y="-196" width="539" height="447" as="geometry" />
        </mxCell>
        <mxCell id="KmAEbtHQRBGaexXC9Sj9-41" value="&lt;font style=&quot;font-size: 27px;&quot;&gt;Dans ce &quot;diagramme&quot; on s&#39;efforcera de montrer le cheminement complet d&#39;une tâche attribuée par l&#39;équipe commerciale&amp;nbsp; à l&#39;équipe technique. Y figurent la gestion logicielle et la gestion humaine entremelée.&lt;/font&gt;&lt;div&gt;&lt;font style=&quot;font-size: 27px;&quot;&gt;&lt;br&gt;&lt;/font&gt;&lt;/div&gt;&lt;div&gt;&lt;font style=&quot;font-size: 27px;&quot;&gt;N.B. Une tâche créée est par défaut dans le backlog (son statut).&amp;nbsp;&lt;/font&gt;&lt;/div&gt;" style="html=1;overflow=block;blockSpacing=1;whiteSpace=wrap;fontSize=16.7;spacing=3.8;strokeColor=#unset;rounded=1;absoluteArcSize=1;arcSize=9;fillColor=none;strokeWidth=NaN;lucidId=Qgs722q_PT3A;align=left;" parent="1" vertex="1">
          <mxGeometry x="-1640" y="-1068" width="806" height="271" as="geometry" />
        </mxCell>
        <mxCell id="KmAEbtHQRBGaexXC9Sj9-42" value="&lt;span style=&quot;font-size: 36px;&quot;&gt;Parcours d&#39;une tâche technique&lt;/span&gt;" style="text;strokeColor=none;fillColor=none;html=1;fontSize=24;fontStyle=1;verticalAlign=middle;align=left;" parent="1" vertex="1">
          <mxGeometry x="-1636" y="-1145" width="767" height="80" as="geometry" />
        </mxCell>
        <mxCell id="KmAEbtHQRBGaexXC9Sj9-43" value="" style="group" parent="1" vertex="1" connectable="0">
          <mxGeometry x="-252" y="468" width="90" height="47" as="geometry" />
        </mxCell>
        <mxCell id="KmAEbtHQRBGaexXC9Sj9-44" value="" style="strokeColor=#dddddd;shadow=1;strokeWidth=1;rounded=1;absoluteArcSize=1;arcSize=2;" parent="KmAEbtHQRBGaexXC9Sj9-43" vertex="1">
          <mxGeometry width="90" height="40" as="geometry" />
        </mxCell>
        <mxCell id="KmAEbtHQRBGaexXC9Sj9-45" value="" style="group" parent="KmAEbtHQRBGaexXC9Sj9-43" vertex="1" connectable="0">
          <mxGeometry width="90" height="40" as="geometry" />
        </mxCell>
        <mxCell id="KmAEbtHQRBGaexXC9Sj9-46" value="" style="html=1;verticalLabelPosition=bottom;align=center;labelBackgroundColor=#ffffff;verticalAlign=top;strokeWidth=2;strokeColor=#0080F0;shadow=0;dashed=0;shape=mxgraph.ios7.icons.alarm_clock;" parent="KmAEbtHQRBGaexXC9Sj9-45" vertex="1">
          <mxGeometry x="10" y="8.33" width="23.57" height="23.33" as="geometry" />
        </mxCell>
        <mxCell id="KmAEbtHQRBGaexXC9Sj9-47" value="&lt;div style=&quot;font-size: 12px;&quot;&gt;&lt;span style=&quot;background-color: initial;&quot;&gt;PO&lt;/span&gt;&lt;/div&gt;" style="html=1;overflow=block;blockSpacing=1;whiteSpace=wrap;fontSize=16.7;spacing=3.8;strokeColor=#unset;rounded=1;absoluteArcSize=1;arcSize=9;fillColor=none;strokeWidth=NaN;lucidId=Qgs722q_PT3A;align=left;fontStyle=2" parent="KmAEbtHQRBGaexXC9Sj9-45" vertex="1">
          <mxGeometry x="47" y="-0.009999999999990905" width="30" height="40" as="geometry" />
        </mxCell>
        <mxCell id="KmAEbtHQRBGaexXC9Sj9-49" style="edgeStyle=orthogonalEdgeStyle;rounded=0;orthogonalLoop=1;jettySize=auto;html=1;exitX=0.75;exitY=1;exitDx=0;exitDy=0;entryX=0.5;entryY=0;entryDx=0;entryDy=0;dashed=1;" parent="1" source="KmAEbtHQRBGaexXC9Sj9-48" target="7268VmPEQmdFCBt6fVRC-59" edge="1">
          <mxGeometry relative="1" as="geometry">
            <Array as="points">
              <mxPoint x="-647" y="154" />
              <mxPoint x="-525" y="154" />
            </Array>
          </mxGeometry>
        </mxCell>
        <mxCell id="KmAEbtHQRBGaexXC9Sj9-48" value="Pour quand ?&lt;div&gt;&lt;i&gt;(facultatif)&lt;/i&gt;&lt;/div&gt;" style="html=1;overflow=block;blockSpacing=1;whiteSpace=wrap;fontSize=16.7;spacing=3.8;strokeColor=#666666;rounded=1;absoluteArcSize=1;arcSize=9;fillColor=#f5f5f5;strokeWidth=NaN;lucidId=y4r7EGyVs_DY;fontColor=#333333;" parent="1" vertex="1">
          <mxGeometry x="-760" y="101" width="150" height="46" as="geometry" />
        </mxCell>
        <mxCell id="KmAEbtHQRBGaexXC9Sj9-51" style="edgeStyle=orthogonalEdgeStyle;rounded=0;orthogonalLoop=1;jettySize=auto;html=1;exitX=0.25;exitY=1;exitDx=0;exitDy=0;entryX=0.11;entryY=0.11;entryDx=0;entryDy=0;entryPerimeter=0;dashed=1;" parent="1" source="KmAEbtHQRBGaexXC9Sj9-48" target="7268VmPEQmdFCBt6fVRC-218" edge="1">
          <mxGeometry relative="1" as="geometry" />
        </mxCell>
        <mxCell id="KmAEbtHQRBGaexXC9Sj9-53" style="edgeStyle=orthogonalEdgeStyle;rounded=0;orthogonalLoop=1;jettySize=auto;html=1;entryX=0.11;entryY=0.11;entryDx=0;entryDy=0;entryPerimeter=0;exitX=0.437;exitY=0.943;exitDx=0;exitDy=0;exitPerimeter=0;" parent="1" source="7268VmPEQmdFCBt6fVRC-217" target="7268VmPEQmdFCBt6fVRC-218" edge="1">
          <mxGeometry relative="1" as="geometry" />
        </mxCell>
        <mxCell id="KmAEbtHQRBGaexXC9Sj9-57" value="" style="html=1;jettySize=18;whiteSpace=wrap;overflow=block;blockSpacing=1;fontSize=13;strokeColor=#3a414a;strokeOpacity=100;strokeWidth=0.8;rounded=1;arcSize=12;edgeStyle=orthogonalEdgeStyle;startArrow=none;endArrow=block;endFill=1;exitX=0.513;exitY=0.902;exitPerimeter=0;entryX=0.75;entryY=0;lucidId=j2r7BA~THjf5;exitDx=0;exitDy=0;entryDx=0;entryDy=0;dashed=1;" parent="1" edge="1">
          <mxGeometry width="100" height="100" relative="1" as="geometry">
            <Array as="points">
              <mxPoint x="-633" y="57" />
              <mxPoint x="-525" y="57" />
              <mxPoint x="-525" y="81" />
              <mxPoint x="-647" y="81" />
            </Array>
            <mxPoint x="-632.8584599999999" y="3.326999999999998" as="sourcePoint" />
            <mxPoint x="-647.5" y="101" as="targetPoint" />
          </mxGeometry>
        </mxCell>
      </root>
    </mxGraphModel>
  </diagram>
</mxfile>
